<?xml version="1.0" encoding="UTF-8" standalone="no"?>
<!-- Created with Inkscape (http://www.inkscape.org/) -->

<svg
   width="1000"
   height="1200"
   viewBox="0 0 264.58332 317.5"
   version="1.1"
   id="svg1"
   xml:space="preserve"
   xmlns="http://www.w3.org/2000/svg"
   xmlns:svg="http://www.w3.org/2000/svg"><defs
     id="defs1" /><g
     id="layer1"><path
       style="fill:none;stroke:#000000;stroke-width:1.98599;stroke-opacity:1"
       d="m 308.99948,337.21235 v 0 m -44.8574,-164.02766 c -8.37448,17.99846 -26.52343,15.50247 -42.11008,9.656 12.28282,26.97351 -10.80957,52.14403 -39.10286,41.35722 -3.58069,10.33492 -8.54044,30.61754 -18.22096,36.65178 -7.25121,4.52001 -24.91514,8.77403 -27.41197,-1.46871 l -2.11738,0.0595 c -6.0637,16.48855 -22.54949,62.93162 -36.883016,26.51409 -1.39105,-3.53429 -2.18669,-6.86184 -2.93172,-10.56534 -1.46949,8.19471 8.119106,39.72846 -5.49096,42.70128 -5.282238,1.15382 -6.731626,-7.15628 -7.692755,-10.55618 L 71.044978,267.59436 C 56.819589,216.55966 51.833865,146.23354 19.407384,103.75664 7.1467804,87.696047 -5.7739706,66.221439 9.3308874,47.047533 20.817592,32.466482 42.162423,30.543593 56.817261,41.13397 70.414312,50.959915 76.129102,68.77805 89.946754,77.955889 144.86744,114.43483 208.08651,138.42333 264.14208,173.18469 m -198.795469,14.0461 -23.428088,-79.86685 -4.234736,0.11885 c 1.612265,21.8444 11.051501,64.94528 27.662824,79.74816 m 25.349103,-2.82934 C 81.484292,152.50978 76.867081,121.21793 48.033341,98.716675 41.648795,127.6941 66.035528,171.55046 90.695714,184.40164 M 128.33378,166.39478 C 116.21386,128.34856 93.165904,113.43255 64.675668,87.655147 l -2.117362,0.05925 c -10.908079,17.791733 20.006636,45.077943 29.246248,60.632373 14.427516,-1.04888 24.743166,11.13474 36.529226,18.0478 m 15.98973,-34.35252 C 134.87523,113.13146 91.332754,72.963362 68.791752,83.30173 l 0.05933,2.117381 c 25.080912,19.215669 45.937478,35.305499 75.472398,46.623039 z"
       id="path5" /></g></svg>
