<?xml version="1.0" encoding="UTF-8" standalone="no"?>
<!-- Created with Inkscape (http://www.inkscape.org/) -->

<svg
   width="210mm"
   height="297mm"
   viewBox="0 0 210 297"
   version="1.1"
   id="svg1"
   xml:space="preserve"
   xmlns="http://www.w3.org/2000/svg"
   xmlns:svg="http://www.w3.org/2000/svg"><defs
     id="defs1" /><g
     id="layer1"><path
       style="fill:none;stroke:#000000;stroke-width:2.70929;stroke-opacity:1"
       d="m 78.777794,192.46361 -7.88517,11.46932 h 66.665536 l -6.45151,-11.46932 c 3.38928,-0.42835 12.85966,0.31579 14.62098,-3.17763 2.61701,-5.19068 0.16337,-15.59458 -0.21999,-21.19475 -1.10536,-16.14172 0.91519,-32.68371 -1.19364,-48.74467 -0.66118,-5.03566 1.71092,-14.31596 -1.45356,-18.47674 -2.20607,-2.90059 -7.01059,-3.54006 -10.31996,-4.37125 -9.04696,-2.27219 -18.63236,-3.4315 -27.95652,-3.4315 -9.373078,0 -18.787994,1.44115 -27.956532,3.34303 -3.014329,0.62524 -8.138036,1.2056 -10.01576,3.98183 -2.761287,4.08264 -1.45358,14.80995 -1.45358,19.67145 0,16.29035 -0.716831,32.46692 -0.716831,48.74471 0,5.17943 -3.043067,16.02465 0.01977,20.47732 2.153893,3.1311 10.82641,2.73706 14.316762,3.1782 m 60.568421,-46.95667 c -11.80466,2.73096 -22.6858,9.65761 -34.76239,10.75017 -8.044048,0.72775 -17.868351,-4.98032 -25.512852,-7.47198 -2.366681,-0.77139 -7.379108,-1.37325 -8.601186,-3.86365 -2.858711,-5.82561 -1.02092,-15.71413 -1.01083,-21.99077 0.0073,-4.6161 -1.862734,-14.52165 1.24893,-18.23778 2.788334,-3.32995 9.14075,-3.36853 13.087752,-4.12511 13.112107,-2.51333 26.269956,-2.68228 39.425836,-0.39658 4.18505,0.72712 12.47823,1.32709 15.0336,5.22029 1.76571,2.69011 1.41279,9.3252 1.45082,12.52136 0.11375,9.5599 0.49746,18.50552 0.50374,28.02576 M 77.344131,132.96638 c 8.808277,-1.11319 17.63994,-1.43367 26.522839,-1.43367 7.3037,0 20.34246,3.31415 27.01181,0.87947 1.979,-0.72246 1.64945,-3.50686 1.66099,-5.18047 0.0281,-4.10233 1.83762,-14.44554 -1.74397,-17.24825 -2.66708,-2.08708 -8.61296,-2.01582 -11.87533,-2.09575 -9.76179,-0.23923 -19.684922,-0.33958 -29.390161,0.58464 -3.636961,0.34635 -9.057026,-0.57367 -11.753648,2.58027 -3.271268,3.82604 -1.534362,17.28578 -0.43253,21.91376 m 25.806019,-22.22183 v 16.48716 l -23.655518,1.43367 0.863422,-15.83961 22.792096,-2.08122 m 25.80601,1.43365 v 16.48718 l -23.6555,-1.43367 v -16.05545 l 23.43964,1.2178 m -59.281341,36.34266 c 7.561203,3.35164 16.456334,7.45123 24.303083,10.06685 3.693251,1.23107 7.591788,1.69396 11.538618,1.51478 11.38226,-0.51671 24.99449,-8.0521 35.84165,-11.58163 0,8.88142 0.71685,17.65158 0.71685,26.52287 0,2.61279 0.90532,7.41425 -0.73676,9.63135 -2.71203,3.66174 -12.44571,2.331 -16.46724,2.85903 -18.35155,2.4096 -38.385293,0.56988 -56.62987,-1.73787 l 0.652672,-27.23969 0.780997,-10.03569 m 14.337222,15.5032 c -8.751538,1.37082 -6.499785,15.23265 2.147188,13.55567 8.440667,-1.63694 6.300268,-14.87886 -2.147188,-13.55567 m 40.142149,0.0574 c -8.84856,1.14485 -7.25351,14.54075 1.43365,13.51532 8.77789,-1.03615 7.38553,-14.65633 -1.43365,-13.51532 z"
       id="path1" /></g></svg>
