<svg xmlns="http://www.w3.org/2000/svg">
	<symbol viewBox="0 0 210 297" id='telescope'>
		<path
			d="m 166.81852,114.72431 0.37447,2.62134 c -9.37198,1.81751 -18.7242,3.74509 -28.0856,5.61712 -2.69741,0.5394 -9.01673,0.37893 -8.23843,4.11921 l -58.043554,11.60873 0.37447,2.99578 c -9.951051,0.79192 -20.164774,3.88289 -29.95797,5.84193 -4.895541,0.9793 -11.344908,1.22891 -15.727935,3.71963 -7.750841,4.40446 -7.222053,16.43321 1.123423,19.84395 4.875554,1.99261 10.441156,-0.11233 15.353461,-1.09509 10.876471,-2.17576 22.630038,-6.11417 33.702715,-6.59088 l 0.374483,2.62132 c 5.872961,-1.13893 14.769269,-5.3203 18.837288,0.87059 0.853868,1.29943 -0.213853,3.41353 -0.596967,4.74652 -1.115886,3.88243 -2.344017,7.73147 -3.476911,11.60871 -3.103037,10.62011 -6.236369,21.23296 -9.415885,31.83037 -1.569851,5.2323 -3.803422,10.69798 -4.598584,16.1024 l 4.119224,1.12342 c 2.290296,-5.32183 3.473191,-11.30211 5.137745,-16.85135 3.143179,-10.47853 6.218084,-20.97755 9.361859,-31.45588 1.160551,-3.86807 2.278759,-7.74864 3.465918,-11.6087 0.31593,-1.02732 0.59279,-3.56098 1.94403,-3.77422 1.3746,-0.21694 1.7726,2.12108 2.05672,3.02525 1.20824,3.84497 2.33011,7.73555 3.44509,11.60871 4.67066,16.22446 8.62257,33.29497 14.65741,49.05619 l 4.11924,-1.12342 -4.33478,-15.35348 -9.30523,-31.45587 -3.45811,-11.6087 -1.27774,-5.20361 3.57312,-3.78522 2.97615,-4.92019 6.20946,-1.59412 14.97899,-2.84611 0.37445,2.24685 36.69854,-7.4895 0.37445,2.62131 10.85978,-2.09717 3.71959,-1.17515 -1.32306,-9.08534 -5.7668,-27.71111 -14.60452,2.99578 m 11.23425,2.24686 5.61712,28.46008 -5.99159,1.12342 -3.07064,-14.60451 -2.54648,-13.85557 5.99159,-1.12342 m -37.82195,34.0772 -4.4937,-22.84297 22.84297,-4.56853 8.86979,-1.50772 1.69033,4.95283 2.62132,13.10661 0.0723,4.49804 -8.38552,1.94286 -23.21744,4.41888 m -4.86816,-1.12342 -20.5961,4.11921 c -3.28003,-10.06318 -15.785123,-13.60762 -22.044006,-3.74474 -1.690473,2.66385 -1.547896,5.59234 -1.547896,8.61291 l -9.736341,1.87237 c -0.348516,-4.37875 -1.610188,-8.80012 -2.471666,-13.1066 -0.249898,-1.24924 -1.298702,-3.87155 -0.498994,-5.02219 1.30765,-1.8815 8.260342,-2.10225 10.460154,-2.54214 10.23987,-2.04771 20.465899,-4.16849 30.706919,-6.21641 2.35431,-0.4708 9.72997,-3.23573 11.76271,-1.90328 1.07698,0.70594 1.11389,3.29958 1.3439,4.44978 0.8933,4.46718 2.03795,8.96371 2.62132,13.48109 m -58.79252,8.98738 -34.077198,6.74055 -2.621321,-12.73215 c 8.239606,-2.13179 16.763362,-3.39323 25.089799,-5.16375 1.870649,-0.39777 7.12407,-2.37735 8.766924,-1.18643 0.885998,0.64225 0.923429,2.37668 1.119083,3.3544 0.59659,2.9811 1.333374,5.9725 1.722713,8.98738 m 24.71532,-9.96461 c 9.67066,-2.10613 12.59599,12.6126 2.99578,14.58052 -9.123394,1.87021 -12.110903,-12.59537 -2.99578,-14.58052 m -65.907536,4.72197 2.621322,12.73213 c -2.494917,0.84487 -5.35488,1.51699 -7.86368,0.38574 -4.095212,-1.84655 -4.766336,-7.30904 -1.792618,-10.45609 1.835233,-1.94221 4.593543,-2.03012 7.034976,-2.66178 z"
		/>
	</symbol>
</svg>