<?xml version="1.0" encoding="UTF-8" standalone="no"?>
<!-- Created with Inkscape (http://www.inkscape.org/) -->

<svg
   width="210mm"
   height="297mm"
   viewBox="0 0 210 297"
   version="1.1"
   id="svg1"
   xml:space="preserve"
   xmlns="http://www.w3.org/2000/svg"
   xmlns:svg="http://www.w3.org/2000/svg"><defs
     id="defs1" /><g
     id="layer1"><path
       style="fill:none;stroke:#000000;stroke-width:10.6045;stroke-opacity:1;opacity:1"
       d="m 108.99222,152.90974 c 1.20138,8.91415 4.821,17.84153 7.01667,26.57012 0.57477,2.28663 3.10338,7.42482 1.98273,9.61857 -1.1736,2.29755 -4.68984,4.20361 -6.67459,5.79198 -4.05537,3.24539 -8.03585,6.60084 -12.288575,9.59163 -2.56913,1.8068 -6.01667,3.46672 -7.99132,5.94318 -2.91614,3.65727 -0.82187,10.4118 4.00584,11.16356 4.03966,0.62886 7.557805,-2.48645 10.628015,-4.67532 6.42951,-4.58398 12.37588,-9.80722 18.59902,-14.65793 2.26234,-1.76332 5.09663,-5.06196 7.97097,-5.50512 0.69142,4.01444 2.73946,8.1764 4.25136,11.95644 0.4952,1.23843 1.93552,3.48891 1.54707,4.84096 -0.54933,1.91095 -3.13268,3.93713 -4.38688,5.45497 -3.65695,4.42567 -7.08072,9.06991 -10.11062,13.94935 -1.5859,2.55398 -3.08835,4.82218 -2.48018,7.97096 0.88122,4.5593 7.16863,6.77278 10.81722,4.05081 2.24261,-1.67306 3.59386,-4.75101 5.12258,-7.0399 2.768,-4.14454 5.79101,-8.14487 9.00248,-11.95656 2.19356,-2.60362 5.86418,-5.29874 6.8942,-8.63523 1.76257,-5.70978 -3.77563,-14.31978 -5.77531,-19.5955 -4.37636,-11.54545 -7.51275,-23.5738 -10.52221,-35.53747 -0.95865,-3.81133 -3.95091,-9.68973 -3.49015,-13.5822 0.21739,-1.83585 5.28283,-3.56652 6.76939,-4.49375 5.02144,-3.13227 15.26802,-9.50163 15.26802,-16.13294 0,-2.79673 -1.75993,-5.03005 -3.17055,-7.30682 -2.59609,-4.18984 -5.15471,-8.40745 -7.71243,-12.62071 -1.45746,-2.40086 -2.69936,-5.09461 -5.38165,-6.33832 -4.30289,-1.995118 -10.35465,1.7401 -9.85052,6.67044 0.47826,4.68209 5.02811,9.67756 7.39315,13.61712 0.65851,1.09778 2.8087,3.51433 2.54728,4.83609 -0.47932,2.42417 -6.38729,5.40191 -8.3928,6.54921 -10.22912,5.85189 -21.75068,6.96556 -32.880495,3.33796 -5.87594,-1.91526 -10.78096,-5.08654 -16.27419,-7.75473 -2.04019,-0.99153 -4.91624,0.008 -6.54277,-0.92789 -1.16257,-0.66809 -2.01135,-2.33321 -2.79873,-3.38359 -2.12503,-2.83456 -5.2874,-6.22216 -6.400658,-9.63162 -0.613992,-1.88124 0.830338,-4.30341 0.727468,-6.3103 C 66.106715,102.81235 63.822724,97.158877 60.25346,92.463005 55.699358,86.471467 45.007928,80.88513 38.280901,86.925977 c -8.549681,7.677752 -0.37646,21.599653 6.611499,26.876543 2.761854,2.08558 5.913203,3.83672 9.299518,4.64954 2.279013,0.54718 4.71783,-0.33086 6.642438,1.29439 3.376676,2.85154 9.130999,7.94562 10.747979,12.14469 1.02228,2.65482 -0.86002,5.04764 1.33829,7.72037 2.18441,2.65602 6.15484,4.23418 9.16981,5.74149 8.24529,4.12207 17.63452,7.15888 26.902215,7.55685 M 43.896031,86.916749 c 9.701621,-1.433513 17.156694,8.541815 19.351369,16.838551 1.136509,4.29619 1.421244,11.631 -4.405706,12.54977 -8.816492,1.38995 -18.286481,-7.82112 -20.8045,-15.53896 -1.710799,-5.243608 -0.741998,-12.873959 5.858837,-13.849361 m 67.089419,21.310461 c -15.777585,2.84465 -11.038015,27.2616 4.64974,24.64696 16.24618,-2.70775 11.5098,-27.56054 -4.64974,-24.64696 m -48.109387,7.77256 c 1.732229,0 3.537842,3.73055 1.244531,3.69545 -1.693438,-0.0212 -3.301817,-3.69545 -1.244531,-3.69545 z"
       id="path1" /></g></svg>
