<svg xmlns="http://www.w3.org/2000/svg">
  <symbol viewBox="0 0 200 200" id='star'>
    <path
      d="m 13.102453,6.4973623 c -0.836878,0.1112394 -1.145207,0.6865533 -1.491448,1.3790279 -0.217469,0.434925 -0.426822,0.8732342 -0.644289,1.3081658 -0.127816,0.255626 -0.247212,0.666563 -0.48067,0.841236 -0.225187,0.16848 -0.6784099,0.153995 -0.9513149,0.192026 -0.4827207,0.06727 -0.9645253,0.14056 -1.4469073,0.210081 -0.675004,0.09726 -1.3162622,0.178167 -1.6839773,0.837839 -0.2575321,0.462 -0.2456264,1.079809 0.040644,1.52619 0.2690054,0.419447 0.7256991,0.773918 1.088346,1.111731 0.2114214,0.196936 0.4056164,0.412207 0.6144411,0.611884 0.2045021,0.195552 0.5330911,0.410918 0.6498451,0.674685 0.1186881,0.268169 -0.056081,0.730696 -0.1030708,1.010857 -0.084233,0.502205 -0.1675204,1.005214 -0.2578827,1.50637 -0.094645,0.524944 -0.200128,1.038617 0.091817,1.52619 0.084233,0.140672 0.1907768,0.264034 0.313015,0.373148 0.7840219,0.699831 1.6683558,0.20776 2.4379438,-0.208476 0.327671,-0.177206 0.661559,-0.343261 0.991031,-0.517108 0.218094,-0.115072 0.433505,-0.235898 0.654087,-0.346186 0.112151,-0.05606 0.226464,-0.127659 0.356772,-0.104695 0.250021,0.04413 0.511838,0.24133 0.733362,0.361138 0.472005,0.255269 0.955069,0.490309 1.427087,0.745596 0.435723,0.235652 0.871098,0.49542 1.387449,0.421451 0.180621,-0.02588 0.353945,-0.08004 0.515336,-0.165578 0.477403,-0.253008 0.792244,-0.769576 0.792244,-1.312494 0,-0.28256 -0.0834,-0.574641 -0.129959,-0.852284 -0.08093,-0.482601 -0.167677,-0.964171 -0.247636,-1.446907 -0.04392,-0.265096 -0.197026,-0.669952 -0.121501,-0.931573 0.07813,-0.270656 0.444374,-0.519555 0.638441,-0.713542 0.299008,-0.298897 0.602237,-0.601842 0.911749,-0.890157 0.517801,-0.482343 1.083521,-0.954223 1.049715,-1.726172 -0.02512,-0.573902 -0.402391,-1.128847 -0.950613,-1.321147 -0.291263,-0.102171 -0.607351,-0.126901 -0.911754,-0.170778 -0.482373,-0.0695 -0.964233,-0.142815 -1.446905,-0.210082 -0.283809,-0.03952 -0.762572,-0.02142 -0.989186,-0.211286 C 15.737711,9.838233 15.631252,9.475207 15.515673,9.244017 15.272025,8.7566489 15.035906,8.2649076 14.7921,7.7772938 14.679283,7.5516412 14.590299,7.3084373 14.440556,7.1033883 14.145172,6.6988903 13.61053,6.4298346 13.102451,6.4973611 m 0.01987,1.0884629 c 0.319074,-0.061644 0.454604,0.1593075 0.579689,0.4094926 0.138172,0.2763467 0.268259,0.5561033 0.406439,0.8324652 0.168302,0.3366082 0.344033,0.6705742 0.504763,1.0108572 0.230467,0.487922 0.457622,0.992258 0.986689,1.220393 0.324561,0.139935 0.703371,0.160914 1.050491,0.209278 0.548799,0.07646 1.096322,0.161383 1.645117,0.237842 0.295628,0.04123 0.828361,0.02853 0.851436,0.433478 0.0225,0.394936 -0.500792,0.757348 -0.772153,0.996687 -0.243737,0.214969 -0.455968,0.464817 -0.693724,0.686292 -0.419266,0.390554 -0.946396,0.788829 -1.092214,1.369401 -0.09204,0.366429 -2.52e-4,0.727065 0.05995,1.090134 0.09965,0.601484 0.199147,1.203677 0.307309,1.803684 0.06229,0.345354 0.242404,0.887531 -0.246254,0.997348 -0.287379,0.06459 -0.667477,-0.251708 -0.911748,-0.37778 -0.456974,-0.235869 -0.912797,-0.474341 -1.367621,-0.714329 -0.277264,-0.146296 -0.547184,-0.319024 -0.85229,-0.400482 -0.481796,-0.12862 -0.889416,0.05598 -1.308166,0.272091 -0.443848,0.229091 -0.882755,0.467676 -1.327985,0.694013 -0.363251,0.184661 -1.1371519,0.829071 -1.4736099,0.341773 -0.1775191,-0.257112 0.03032,-0.806111 0.07798,-1.090128 0.08867,-0.528824 0.182608,-1.056724 0.270761,-1.585649 0.07184,-0.431107 0.157544,-0.829064 -0.0221,-1.248708 C 9.6325341,14.394548 9.3101724,14.139365 9.0195326,13.861452 8.6249104,13.484113 8.2361313,13.098648 7.8501124,12.712632 7.6225444,12.485062 7.143611,12.181433 7.3435404,11.800883 c 0.1654672,-0.314971 0.7350223,-0.280082 1.0417304,-0.325478 0.5548552,-0.08213 1.1097163,-0.16395 1.6649362,-0.243952 0.403297,-0.05811 0.801921,-0.102615 1.12978,-0.371348 0.30123,-0.246912 0.449476,-0.582659 0.619335,-0.922365 0.247119,-0.494234 0.486177,-0.9921735 0.733362,-1.4865489 0.125607,-0.2512415 0.277432,-0.8050414 0.589729,-0.8653671 z" />
  </symbol>
  <symbol viewBox="0 0 200 200" id='train'>
    <path 
      d="m 78.777794,192.46361 -7.88517,11.46932 h 66.665536 l -6.45151,-11.46932 c 3.38928,-0.42835 12.85966,0.31579 14.62098,-3.17763 2.61701,-5.19068 0.16337,-15.59458 -0.21999,-21.19475 -1.10536,-16.14172 0.91519,-32.68371 -1.19364,-48.74467 -0.66118,-5.03566 1.71092,-14.31596 -1.45356,-18.47674 -2.20607,-2.90059 -7.01059,-3.54006 -10.31996,-4.37125 -9.04696,-2.27219 -18.63236,-3.4315 -27.95652,-3.4315 -9.373078,0 -18.787994,1.44115 -27.956532,3.34303 -3.014329,0.62524 -8.138036,1.2056 -10.01576,3.98183 -2.761287,4.08264 -1.45358,14.80995 -1.45358,19.67145 0,16.29035 -0.716831,32.46692 -0.716831,48.74471 0,5.17943 -3.043067,16.02465 0.01977,20.47732 2.153893,3.1311 10.82641,2.73706 14.316762,3.1782 m 60.568421,-46.95667 c -11.80466,2.73096 -22.6858,9.65761 -34.76239,10.75017 -8.044048,0.72775 -17.868351,-4.98032 -25.512852,-7.47198 -2.366681,-0.77139 -7.379108,-1.37325 -8.601186,-3.86365 -2.858711,-5.82561 -1.02092,-15.71413 -1.01083,-21.99077 0.0073,-4.6161 -1.862734,-14.52165 1.24893,-18.23778 2.788334,-3.32995 9.14075,-3.36853 13.087752,-4.12511 13.112107,-2.51333 26.269956,-2.68228 39.425836,-0.39658 4.18505,0.72712 12.47823,1.32709 15.0336,5.22029 1.76571,2.69011 1.41279,9.3252 1.45082,12.52136 0.11375,9.5599 0.49746,18.50552 0.50374,28.02576 M 77.344131,132.96638 c 8.808277,-1.11319 17.63994,-1.43367 26.522839,-1.43367 7.3037,0 20.34246,3.31415 27.01181,0.87947 1.979,-0.72246 1.64945,-3.50686 1.66099,-5.18047 0.0281,-4.10233 1.83762,-14.44554 -1.74397,-17.24825 -2.66708,-2.08708 -8.61296,-2.01582 -11.87533,-2.09575 -9.76179,-0.23923 -19.684922,-0.33958 -29.390161,0.58464 -3.636961,0.34635 -9.057026,-0.57367 -11.753648,2.58027 -3.271268,3.82604 -1.534362,17.28578 -0.43253,21.91376 m 25.806019,-22.22183 v 16.48716 l -23.655518,1.43367 0.863422,-15.83961 22.792096,-2.08122 m 25.80601,1.43365 v 16.48718 l -23.6555,-1.43367 v -16.05545 l 23.43964,1.2178 m -59.281341,36.34266 c 7.561203,3.35164 16.456334,7.45123 24.303083,10.06685 3.693251,1.23107 7.591788,1.69396 11.538618,1.51478 11.38226,-0.51671 24.99449,-8.0521 35.84165,-11.58163 0,8.88142 0.71685,17.65158 0.71685,26.52287 0,2.61279 0.90532,7.41425 -0.73676,9.63135 -2.71203,3.66174 -12.44571,2.331 -16.46724,2.85903 -18.35155,2.4096 -38.385293,0.56988 -56.62987,-1.73787 l 0.652672,-27.23969 0.780997,-10.03569 m 14.337222,15.5032 c -8.751538,1.37082 -6.499785,15.23265 2.147188,13.55567 8.440667,-1.63694 6.300268,-14.87886 -2.147188,-13.55567 m 40.142149,0.0574 c -8.84856,1.14485 -7.25351,14.54075 1.43365,13.51532 8.77789,-1.03615 7.38553,-14.65633 -1.43365,-13.51532 z" 
    />
  </symbol>
  <symbol viewBox="0 0 200 200" id='map'>
    <path
      d="m 18.651451,10.883533 c -2.525053,-2.68e-4 -4.260273,-0.324396 -6.454802,-1.4937486 -0.55842,-0.297556 -1.322213,-0.6310061 -1.773079,0.01442 -1.4935504,2.1380486 0.191608,3.9815096 0.864816,5.8740906 0.281859,0.792383 0.284917,1.664967 0.543517,2.472052 0.204349,0.637779 0.698114,1.308115 0.774424,1.96192 0.159866,1.369708 -0.126065,2.720136 0.01717,4.080875 0.08949,0.850153 0.582671,1.58864 0.646519,2.47205 0.160731,2.22394 -0.146239,4.63559 -0.243942,6.86681 -0.104874,2.39502 -0.07595,4.91682 -0.527939,7.27883 -0.379799,1.98475 -1.667494,3.27796 -1.799783,5.35611 -0.215556,3.38618 1.758006,6.52853 1.904904,9.88821 0.08759,2.00318 -1.978711,4.27925 -1.390953,6.18013 0.361101,1.16784 1.872898,1.80225 2.360572,3.0214 0.504228,1.26053 0.112986,2.70406 0.498267,3.98275 0.578543,1.92008 2.45304,3.35745 3.392078,5.08144 0.329369,0.60469 0.02985,1.47608 0.561108,1.96361 0.754432,0.69233 2.139366,0.783 3.099179,0.78311 v 0.13734 c -1.021941,0.30324 -1.155316,1.43907 -0.869267,2.33471 0.545103,1.70676 0.991724,2.70532 2.791974,3.29607 -0.215325,0.63237 -0.744111,1.37322 -0.642492,2.06005 0.136444,0.92218 1.153062,1.76943 1.701443,2.47205 0.560896,0.71865 0.850799,1.63456 1.465133,2.30938 0.987588,1.08484 1.982448,1.70029 2.691407,3.05902 0.616406,1.18136 -0.429729,2.62944 0.833343,3.58738 1.319374,1.00064 3.169951,0.25079 4.663393,0.79509 v 0.13734 c -0.283872,0.0258 -0.560217,0.0441 -0.818613,0.18099 -2.584757,1.36957 2.757762,3.279788 2.054639,0.36835 l 1.922707,0.94652 1.335215,0.29332 0.893004,1.251834 1.342523,0.510134 2.571136,2.35485 1.305646,3.6428 3.127366,-0.0493 7.69083,-0.57265 c 0.115609,1.0345 0.907589,1.25856 1.785371,1.58964 1.688521,0.63689 3.378657,1.2942 5.081441,1.89092 3.416888,1.19741 6.898493,3.10967 10.437554,3.86449 2.453502,0.52329 5.456114,0.0711 7.965502,0.0711 h 4.394759 c 0.488531,0 1.301182,0.14297 1.683425,-0.23928 0.461021,-0.46102 0.239283,-1.6347 0.239283,-2.23277 h 4.532095 c 0.641769,0 1.46862,-0.13356 2.060044,0.16192 1.69164,0.84517 3.01905,2.81985 4.394763,4.08268 0.84515,0.77581 1.887662,1.10344 2.561589,2.07298 1.01829,1.46494 1.18331,3.18856 2.16824,4.66731 1.00735,1.51239 3.75826,3.02643 5.43306,3.69992 2.96902,1.19394 2.80515,-2.10123 4.08268,-3.49 0.74601,-0.81097 4.01926,-0.78236 4.84417,-0.16425 2.62163,1.96436 3.09143,4.84781 4.89335,7.3725 0.95796,1.3422 2.61285,2.3493 3.32425,3.84541 0.37918,0.79742 0.0251,1.76931 0.21396,2.60939 0.51235,2.27848 2.25039,2.95402 4.06604,3.81585 0.77737,0.36899 1.51011,0.92307 2.33472,1.17998 0.75681,0.23577 1.59569,0.13621 2.33471,0.42545 1.09611,0.42901 2.4247,1.38713 3.26948,-0.21692 0.60167,-1.14244 -0.69732,-3.53944 -0.78514,-4.79235 -0.16401,-2.34012 0.91233,-4.03728 1.49841,-6.18013 1.54005,0.61364 2.87203,-0.8982 2.88407,-2.33472 2.79912,0.71707 5.59038,-2.29392 6.4548,-4.66943 2.16132,0.51455 3.94947,-0.99813 6.04279,-1.09328 2.06667,-0.0939 3.75551,1.13489 5.76813,1.07548 1.04137,-0.0307 1.86099,-0.51951 1.64803,-1.63023 1.85883,1.00589 2.20868,4.30482 5.08144,4.03329 0.59706,-0.0564 1.1993,-0.55843 1.78537,-0.73722 0.65039,1.28953 2.74255,0.57482 2.60939,-0.82402 0.4564,0.0577 1.05416,0.25352 1.47933,-0.004 0.45205,-0.27372 0.36056,-0.78139 0.52316,-1.2088 0.48665,-1.27926 0.79228,-1.7702 0.46956,-3.18204 0.77591,-0.11621 1.54911,-0.63396 2.33472,-0.61324 0.66929,0.0176 1.24169,0.4664 1.92271,0.45768 0.66941,-0.009 1.35232,-0.39244 2.00175,-0.3585 0.56955,0.0298 0.95356,0.49313 1.56899,0.40777 1.87261,-0.25972 3.98558,-1.41716 5.90546,-0.74263 1.06013,0.37247 2.38973,1.39331 3.12101,2.23468 0.44634,0.51354 0.53221,1.38143 1.27629,1.57407 1.28247,0.33202 3.03763,-0.23275 4.11754,-0.88972 0.4923,-0.29948 1.04699,-0.97388 1.64804,-1.01105 1.50074,-0.0928 2.81764,2.84216 3.72037,3.73488 0.49138,0.48595 1.16264,0.80568 1.55489,1.3882 0.92472,1.37329 -0.0912,3.8874 0.16193,5.49144 0.24771,1.56994 0.63705,3.54468 1.41648,4.9441 0.75456,1.35482 1.98715,2.48027 2.80268,3.84542 0.30787,0.51534 0.31248,1.15297 0.70289,1.62419 0.45696,0.55153 1.17496,0.77099 1.65525,1.28911 0.51306,0.5535 0.70971,1.1814 1.44446,1.48146 -0.57035,2.40223 2.91355,1.99441 4.06255,0.87711 0.47731,-0.46413 0.38473,-1.12833 0.61696,-1.70113 0.80819,-1.99349 1.20804,-3.73952 1.31178,-5.90546 0.10327,-2.15619 -1.07652,-4.50101 -1.84334,-6.4548 -0.49401,-1.25867 -0.0823,-2.70658 -0.59629,-3.84542 -0.35276,-0.78161 -0.99231,-1.42664 -1.38045,-2.19738 -1.65293,-3.28221 -3.30358,-7.85509 -2.26732,-11.53624 1.09725,-3.89782 4.06402,-6.10274 7.23759,-8.25172 0.57602,-0.39005 1.33073,-0.51999 1.8691,-0.94896 1.15793,-0.92264 1.13711,-2.83422 2.39044,-3.73637 1.06273,-0.764964 2.78854,-0.0116 3.64694,-0.856134 0.39563,-0.38925 0.35475,-0.963374 0.56705,-1.438864 0.31755,-0.71125 1.17134,-1.49371 1.82679,-1.88667 1.5168,-0.90935 3.82488,-0.68094 5.0734,-1.85955 0.9392,-0.88662 0.96168,-2.39738 -0.5414,-2.4462 v -0.54934 c 1.60014,-0.033 3.52207,-0.97169 3.81446,-2.74673 0.17003,-1.03215 -0.41853,-2.8081 -0.66971,-3.84541 -0.43023,-1.77665 -0.17637,-3.7063 -2.45807,-3.70808 l 0.27467,-6.31747 h 0.13734 c 0.12263,0.65086 0.48966,1.41901 0.50356,2.06005 0.0203,0.93799 -1.29658,3.15948 -0.0712,3.83948 0.60661,0.33662 1.18704,-0.26226 1.54312,-0.68287 0.98923,-1.16851 1.28709,-2.56007 2.05495,-3.84329 0.5828,-0.97396 1.30669,-2.02958 1.54684,-3.15874 0.14339,-0.6742 -0.0717,-1.53391 0.23186,-2.16813 0.5285,-1.10416 2.12007,-1.97842 2.78243,-3.07597 1.54446,-2.55928 1.66307,-4.66105 1.98333,-7.52817 1.79062,0.96057 4.02022,-0.0167 5.76812,-0.6444 1.47797,-0.53078 2.31805,-1.43271 1.23603,-2.789 1.23134,0 3.78984,0.25298 4.53209,-0.96136 h 0.27467 c 0.4556,0.77976 0.94221,0.29615 1.64804,0.32194 1.10863,0.0405 3.45201,0.5847 2.60939,-1.42063 0.96839,-0.17978 3.66368,-0.70099 1.91466,-2.13984 -0.55773,-0.45882 -1.34837,-0.3599 -1.84197,-0.90191 -0.87793,-0.96401 -0.98776,-2.11451 -2.27007,-2.72637 0.83679,-0.44156 3.11368,-1.76406 1.09869,-2.47205 0.35445,-0.61404 0.84661,-1.12518 1.12253,-1.78537 0.37491,-0.89708 0.67927,-2.5605 1.44553,-3.20091 0.37528,-0.31364 1.21343,-0.14856 1.68936,-0.30573 0.55821,-0.18434 0.88139,-0.64021 1.37336,-0.9249 1.42964,-0.82732 2.18533,-0.81715 2.33472,-2.70995 2.27072,1.53188 3.59696,-0.26344 5.64307,-1.15592 1.14728,-0.50043 3.10025,-0.85782 3.49889,-2.27949 0.54003,-1.92585 -1.1715,-2.51264 -1.99868,-3.74761 -0.8516,-1.27142 0.27205,-2.8792 -1.9245,-2.97986 0,-1.54671 -0.0934,-3.126376 0.0123,-4.66943 0.0895,-1.306388 0.41713,-2.971858 0.0655,-4.257423 -0.22368,-0.817681 -1.68666,-2.39579 -2.54983,-2.524392 -0.87432,-0.130262 -2.08442,0.703446 -2.88406,1.013693 -0.0148,-1.639435 -2.02978,-2.099944 -3.02765,-0.805677 -1.25297,1.625151 -2.87522,3.689134 -3.53314,5.612445 -0.32082,0.937867 -0.76856,2.052399 -0.93865,3.021394 -0.10084,0.5745 0.16662,1.11076 -0.15641,1.64804 -0.49522,0.82361 -1.64311,2.33495 -2.42331,2.88619 -0.52632,0.37186 -1.29746,0.2455 -1.7964,0.64906 -0.49482,0.40024 -0.56205,1.20831 -1.1858,1.46332 -1.01146,0.41352 -2.74322,0.0829 -3.83099,0.0829 -3.54303,0 -8.03402,-0.739 -11.39891,0.48671 -2.06819,0.75337 -4.66045,2.81566 -5.73803,4.72677 -0.47401,0.84065 -1.60852,1.95706 -0.30477,2.61469 -0.0941,0.50666 -0.0399,1.16524 -0.27308,1.62461 -0.60156,1.18513 -2.28677,1.37591 -3.43499,1.56284 -3.01701,0.49117 -6.17276,-1.12199 -9.18118,0.19148 -1.48557,0.6486 0.72162,2.93867 -0.066,3.80854 -1.56668,1.73021 -4.13494,3.48231 -6.2718,4.38661 -0.97716,0.41353 -2.05962,0.58229 -3.0214,1.0493 -0.68031,0.33035 -1.11451,0.98653 -1.78537,1.32218 -0.87221,0.4364 -3.02421,0.89639 -3.98275,0.86439 -1.11006,-0.0371 -2.37763,-0.99152 -3.4334,-1.351 0.69021,-0.8599 0.79702,-1.90532 1.43089,-2.74663 1.00743,-1.3371 2.31329,-1.79229 2.6255,-3.57084 0.32908,-1.87464 0.23315,-5.29259 -0.59353,-7.00405 -0.43848,-0.90775 -1.5392,-1.90591 -2.63885,-1.80146 -0.7136,0.0678 -1.3378,0.75045 -1.9227,1.11468 1.72617,-1.99095 2.3989,-6.9737 0.38667,-8.88213 -1.48084,-1.40444 -3.781,-1.77578 -5.19344,-3.20346 0.79285,0.002 3.13811,0.57004 3.10713,-0.82465 -0.0136,-0.61428 -0.60921,-1.02674 -0.65511,-1.647399 -0.0554,-0.748745 0.28697,-1.850636 -0.42335,-2.388665 -0.79399,-0.601416 -2.61438,0.172089 -3.53937,0.191285 0.73754,-2.817371 -2.81756,-1.622268 -4.39476,-1.289539 -0.64053,0.135123 -1.30473,-0.04149 -1.92271,0.228988 -0.6244,0.273298 -1.11601,0.808511 -1.78537,0.991983 -0.63966,0.175342 -1.69137,0.171503 -2.33472,0.01103 -0.95563,-0.238377 -1.21629,-1.144088 -1.83051,-1.786008 -0.75252,-0.786448 -1.5106,-1.04179 -2.56425,-1.177853 0.56735,-0.727201 2.01213,-1.190023 2.26203,-2.065978 0.62655,-2.196189 -3.02913,-1.291919 -3.91006,-0.840648 -0.92922,0.476016 -1.43563,1.376112 -2.20278,2.037462 -0.79248,0.683194 -1.80862,0.873825 -2.74132,1.286571 -1.64408,0.727554 -3.17168,2.178906 -4.94411,1.505301 0.84663,-2.88448 -3.79143,-1.276479 -4.9441,-0.686681 0.50849,-0.474441 1.20704,-0.679741 1.68099,-1.156227 1.30649,-1.313445 2.51054,-3.091758 4.22446,-3.927762 1.34998,-0.658483 3.94115,-0.69612 4.56538,-2.344356 0.2912,-0.768912 -0.38078,-1.04226 -0.99473,-1.142664 -1.47855,-0.241797 -3.09235,-0.294136 -4.52606,-0.674175 -0.68484,-0.181527 -0.84682,-1.0503896 -1.65407,-0.968981 -0.88788,0.08952 -1.99976,1.060902 -2.88397,0.798786 -1.44496,-0.428354 -1.80059,-1.8507857 -3.57074,-1.4341836 -0.78819,-1.3641591 -3.20948,-1.7753961 -4.66943,-1.7491261 -0.63017,0.01133 -1.15834,0.277791 -1.78537,0.05415 -0.99978,-0.356601 -2.21381,-0.615884 -3.15873,-1.068916 -1.23301,-0.591156 -2.33712,-1.544027 -3.70808,-1.862522 -1.78469,-0.414624 -4.07187,-0.04302 -5.90546,-0.04302 H 127.14709 45.432018 25.380927 20.436823 c -0.553651,0 -1.437063,-0.160958 -1.83984,0.318328 -1.153734,1.372876 1.405537,2.589824 1.399536,3.644507 -0.0035,0.6103511 -1.202742,1.3938817 -1.345068,2.2172947 M 104.48661,6.3514383 V 31.346632 H 79.766077 74.821973 c -0.681367,0 -1.604338,-0.14428 -2.159127,0.34525 -0.522035,0.46063 -0.449847,1.22279 -0.450262,1.85213 -1.007544,0.0244 -1.041266,0.72063 -1.821507,1.00353 -0.386631,0.14019 -0.920636,-0.0206 -1.337226,0.0394 -1.010562,0.14551 -2.957993,0.96052 -3.925315,0.52021 -0.48214,-0.21946 -0.689992,-1.14704 -0.989753,-1.56305 -0.832832,-1.15584 -1.791859,-1.97989 -2.44217,-3.30157 -0.493124,-1.00221 -0.262094,-2.33068 -1.569618,-2.79528 -0.793761,-0.28204 -1.404792,0.441 -2.060043,0.74063 0.03612,-0.66114 0.403459,-1.04159 0.574567,-1.64803 0.141725,-0.5023 -0.03515,-1.12665 -0.02321,-1.64804 0.02393,-1.045291 0.510073,-2.583433 -0.0266,-3.562691 -0.406195,-0.741184 -1.780048,-0.981606 -2.408258,-1.661481 -1.07024,-1.158254 -2.589292,-2.304019 -3.473356,-3.588764 -0.412881,-0.600008 -0.280419,-1.256546 -0.511197,-1.899287 -0.241709,-0.673185 -0.869886,-1.122781 -1.134931,-1.785371 -0.347817,-0.869517 -0.138502,-2.098552 -0.138502,-3.0213966 0,-0.7421221 -0.274136,-2.1580841 0.08287,-2.8190981 0.284962,-0.527635 2.509475,-0.202299 3.075866,-0.202299 h 9.750873 40.651536 m 1.78537,-0.137337 3.29607,0.137337 h 6.0428 13.32161 l 6.72948,-0.137337 c 0.44658,1.507413 0.3769,3.2457761 0.60805,4.8067687 0.33408,2.256039 0.99526,4.448926 1.27534,6.729475 0.11736,0.95562 -0.0329,1.927217 0.0627,2.884061 0.10375,1.0377 1.48403,3.718171 0.79678,4.58657 -0.34811,0.43987 -1.55756,0.2202 -2.05623,0.2202 h -5.90546 -24.30851 V 11.982223 c 0,-1.640323 -0.49542,-4.2602057 0.13733,-5.7681217 m 31.31267,0 c 2.29136,0.67731 4.92798,-0.312141 7.2555,0.174957 1.386,0.290062 2.37897,1.055688 3.59406,1.68713 1.06694,0.554458 2.5693,0.936642 3.70808,1.3341661 0.67221,0.234655 1.26068,-0.101275 1.9227,-0.143589 0.68457,-0.04374 1.66775,0.267346 2.33472,0.448136 0.98151,0.266039 1.26223,1.0209016 2.06556,1.4706306 0.54965,0.307699 0.95758,-0.301026 1.50518,-0.121845 0.79026,0.258578 1.27477,1.119981 2.06005,1.427931 1.10107,0.431774 1.95662,-0.602154 3.0091,-0.551139 0.66194,0.03209 1.17643,0.689414 1.935,0.723027 0.71832,0.03184 1.59493,-0.258746 2.06004,0.417407 -2.95172,0.699423 -4.30503,3.066562 -6.49941,4.848194 -1.18982,0.966031 -3.0194,2.033136 -3.80939,3.392517 -0.62824,1.081053 -0.072,2.345848 -0.52614,3.418448 -0.43866,1.03601 -1.86165,1.44532 -2.3772,2.62381 -0.46522,1.06345 0.52796,1.49038 0.67131,2.47205 0.0941,0.64454 -0.32699,1.18129 -0.45249,1.78537 -0.15922,0.76642 0.0392,1.886 0.31918,2.60886 0.42466,1.09656 1.64295,1.17944 2.51116,1.80032 0.87393,0.62497 1.14583,1.53415 1.83751,2.29497 0.95497,1.05044 2.07069,1.34412 2.28268,2.90939 h -22.11113 l -0.13193,-7.9655 0.10067,-2.33472 -1.326,-2.47205 0.82115,-1.82458 -1.05164,-6.140922 -0.0996,-3.158733 -1.37316,-7.9655016 -0.23556,-3.1587341 m -92.701937,0.137337 c 0,3.2860101 0.138346,6.6056347 -0.0054,9.8882087 -0.124234,2.836868 -0.499243,5.885441 0.280079,8.652185 -2.613424,0.77251 -5.810683,-0.13169 -8.514846,0.17189 -1.975271,0.22174 -3.873301,1.56005 -5.905459,1.84153 -0.561488,0.0778 -1.095546,-0.21015 -1.648034,-0.1171 -0.66074,0.11127 -1.230513,0.61193 -1.922708,0.59533 -1.037983,-0.0249 -1.917378,-0.52638 -3.021397,-0.40777 -1.03819,0.11155 -2.133915,1.08905 -3.158203,0.88125 -1.207894,-0.24505 -1.170834,-2.36574 -1.94867,-3.239168 -1.059632,-1.189839 -3.267587,-1.236663 -4.781336,-1.236663 0.476807,-0.906198 1.516513,-2.158838 0.549345,-3.021397 0.898627,-1.572024 -0.654879,-1.426339 -1.247577,-2.611501 -0.496671,-0.99314 -0.374321,-2.125661 -0.722286,-3.156621 -0.463235,-1.372491 -1.325167,-2.00125 -1.326206,-3.570742 0.801516,0.217806 1.371132,0.897681 2.197379,1.073258 1.466271,0.311588 4.013187,-0.215795 5.206378,0.755667 1.285451,1.046586 0.659178,4.494225 2.347115,4.694127 0.603943,0.07152 1.128927,-0.440073 1.144363,-1.029703 0.02178,-0.831998 -0.435997,-1.628454 -0.393041,-2.471952 0.08834,-1.734641 1.199632,-2.542129 -0.751322,-3.708079 0.872178,-1.8689417 0.01986,-2.4774327 -0.824017,-3.9827497 h 24.44585 m 4.39476,0 c 0,1.835212 -0.369423,4.1238757 0.07609,5.9054577 0.222174,0.888477 0.924853,1.505183 1.250117,2.334716 0.308432,0.786599 0.272845,1.621044 0.802399,2.332704 1.108095,1.489156 2.836668,2.961581 4.188865,4.254037 0.436309,0.417038 1.192752,0.790723 1.504872,1.304057 0.892275,1.46748 -0.792877,4.025282 -0.792336,5.430822 3.35e-4,0.87389 0.960583,2.06919 1.896852,1.9512 0.531319,-0.067 1.004657,-0.41802 1.510699,-0.57784 0.342653,1.32439 0.911986,3.0186 1.725496,4.10567 0.431049,0.576 1.16924,0.76507 1.57142,1.38989 0.425768,0.66145 0.52134,1.94348 1.37845,2.21783 0.579564,0.18552 1.457044,-0.20329 2.054109,-0.27593 1.977126,-0.24054 3.937893,-0.454 5.768122,-1.12 l 0.137337,4.94411 v 9.88821 H 59.440314 46.668044 c 0,-2.82971 -0.118388,-5.68807 0.0054,-8.51485 0.05614,-1.28199 0.506247,-2.67284 0.417092,-3.94354 -0.06126,-0.87307 -1.259865,-1.09508 -1.174667,-1.96743 0.253553,-2.59618 2.906023,-4.81333 2.960675,-7.46893 0.0416,-2.02152 -2.231164,-3.30387 -2.459336,-5.435163 -0.169767,-1.585738 0.113493,-3.335149 0.113493,-4.944105 V 6.3514383 h 2.746725 M 265.03267,17.201 c 0.60585,3.344419 3.69144,-0.608373 5.15922,1.374 0.63254,0.854328 0.24466,2.053438 0.2023,3.02076 -0.0858,1.959925 -0.33144,4.389332 0.026,6.316832 0.1612,0.86931 0.89412,0.69528 1.39701,1.19926 0.30221,0.30289 0.30089,0.87644 0.36813,1.27343 0.0757,0.44709 0.12319,0.97582 0.46033,1.31391 0.47777,0.47912 1.86255,0.64447 1.49968,1.66764 -0.24334,0.68611 -1.00729,0.61538 -1.54684,0.85952 -1.29744,0.58708 -2.76381,2.33706 -4.26972,2.2316 -0.80688,-0.0565 -1.3313,-1.45838 -2.19038,-1.08914 -1.12502,0.48353 -0.64553,2.21198 -1.46121,2.84093 -0.43548,0.33578 -1.86901,1.22136 -2.3912,1.32789 -0.77071,0.15726 -1.1946,-0.23341 -1.91731,0.31558 -1.06893,0.812 -1.21603,2.36932 -1.9281,3.44167 -1.40628,-3.4564 -1.23603,-7.77208 -1.23603,-11.53624 1.15291,-0.32745 1.03971,-1.88319 1.7681,-2.74672 0.63684,-0.755 1.47432,-1.51706 1.80625,-2.47206 0.178,-0.51216 -0.0212,-0.99312 0.0469,-1.5107 0.12261,-0.931877 0.5486,-2.127601 0.86958,-3.021393 0.5248,-1.461344 2.21344,-3.717869 3.33729,-4.806769 m -87.89519,0.686682 c -0.17427,0.341882 -0.39828,0.633788 -0.59618,0.961571 -1.45781,2.414499 1.91078,1.370881 2.92879,2.024335 1.05853,0.679472 1.3429,1.925272 2.6115,2.457635 0.93687,0.393165 2.74565,0.517542 3.70808,0.169021 0.682,-0.246977 1.22658,-0.810857 1.9227,-1.010424 1.22506,-0.35122 2.83471,-0.517928 4.12009,-0.619388 0.35394,2.350844 2.31379,1.735648 3.98275,1.510699 l -0.27467,1.785371 c -0.71768,-0.17251 -1.38305,-0.30279 -1.92271,0.27467 l -2.74672,-0.894594 -2.47206,0.861534 -1.37336,0.097 -1.37336,1.03108 -3.28165,1.52936 -1.38778,2.4571 c -0.53052,-0.71299 -0.29841,-1.52452 -0.51703,-2.33472 -0.23415,-0.86777 -1.11361,-1.83017 -1.8232,-2.36375 -2.56163,-1.926213 -6.49638,-1.176346 -9.05868,-3.129699 v -0.137336 l 5.21878,-2.603136 2.33471,-2.066296 m -11.94825,3.021367 c 0.0162,1.785807 1.47341,1.566525 2.74672,2.32402 2.06508,1.228516 3.69548,1.9093 6.0428,2.56179 1.17384,0.3263 2.90101,0.42319 3.79391,1.32166 1.00258,1.00884 0.7856,1.64668 1.16312,2.85672 0.1799,0.57661 0.64175,1.29819 0.5272,1.92271 -0.19259,1.04992 -1.49861,1.75873 -1.0066,3.01536 0.48713,1.24418 1.86582,0.43572 2.38918,-0.26864 h 0.13734 c -0.0609,2.93478 -1.9663,5.53317 -2.48201,8.37751 -0.28262,1.55875 0.66941,2.91652 0.5593,4.39476 h -9.4762 c -1.47085,0 -3.04609,0.13452 -4.00766,-1.24885 -0.60199,-0.86606 -0.33775,-2.02292 -0.39304,-3.00857 -0.0642,-1.14384 -0.68768,-3.22189 -1.40558,-4.12009 -0.56353,-0.70507 -1.35053,-1.07949 -1.96985,-1.70007 -0.74668,-0.74819 -1.13725,-1.68721 -1.97484,-2.39617 -1.12183,-0.94954 -2.11916,-0.83951 -2.29489,-2.4959 -0.10498,-0.98953 0.62061,-1.74951 0.50199,-2.74672 -0.0862,-0.72423 -0.90209,-1.46807 -0.6019,-2.19527 0.34302,-0.83096 1.36682,-0.89659 1.89335,-1.54206 0.73446,-0.9004 0.63814,-2.710953 0.63888,-3.816164 1.9189,0.407214 3.37421,-1.192639 5.21878,-1.236026 M 45.020009,50.436372 H 38.290534 21.810185 l -8.514846,0.13733 c -0.754113,-1.70126 -1.339217,-4.35559 -0.755561,-6.18013 0.392721,-1.22766 1.283668,-2.08519 1.536979,-3.4334 0.515798,-2.74527 0.414268,-5.60343 0.604236,-8.37751 0.145019,-2.1177 0.470783,-4.63423 0.125044,-6.72948 0.811674,-0.24672 2.410271,-0.74118 3.127367,-0.0931 0.520309,0.4702 0.363121,1.1429 0.576473,1.74118 0.397366,1.11428 1.518629,2.14779 2.750963,2.17862 1.080913,0.027 1.943146,-0.92419 3.021397,-1.0546 1.021535,-0.12354 1.790514,0.4411 2.746725,0.46945 0.780245,0.0231 1.452425,-0.5333 2.19738,-0.6585 0.552551,-0.0929 1.086519,0.19487 1.648035,0.1171 1.906525,-0.26408 3.640655,-1.2914 5.493449,-1.68524 1.320302,-0.28066 2.906807,-0.19085 4.257424,-0.19085 1.798372,0 5.492179,-0.76713 6.394718,1.23603 0.363484,0.80675 -0.219361,1.72872 -0.516704,2.47205 -0.772776,1.93188 -1.909593,3.72478 -2.356443,5.76812 -0.297167,1.35886 1.191005,1.52029 1.154428,2.6115 -0.124591,3.71695 -1.162215,7.97119 -0.28124,11.67147 m 145.164411,-18.9524 c -1.50553,-0.23067 -3.61042,1.87746 -3.93951,3.29607 -0.14587,0.62881 0.2059,1.17294 0.20272,1.78537 -0.007,1.40573 -1.27378,2.63784 -1.33925,4.12009 -0.0728,1.6477 0.59366,2.84312 0.90392,4.39476 0.21103,1.05537 0.1005,2.35969 0.0465,3.4334 -0.0753,1.49777 -1.98598,4.52744 -3.70202,4.35057 -2.28592,-0.23559 -1.67486,-4.59113 -1.58817,-5.9986 0.078,-1.26631 -0.92828,-2.31911 -0.6834,-3.70808 0.31605,-1.79253 1.21464,-3.37773 1.78812,-5.08144 0.42162,-1.25253 0.56822,-2.61608 1.02558,-3.84542 0.37873,-1.01797 1.18832,-1.95882 1.42381,-3.02139 0.21776,-0.98257 -0.67228,-1.17482 -1.41714,-1.09869 0.53406,-1.21005 1.72807,-1.46604 2.88407,-1.87249 0.60044,-0.21111 0.95696,-0.7339 1.51069,-1.00787 0.68313,-0.33799 1.4708,-0.21933 2.19738,-0.5895 0.68878,-0.3509 2.26039,-0.71717 2.72267,0.24224 0.17569,0.36463 -0.26414,0.81861 -0.34493,1.16757 -0.12466,0.53848 0.1281,1.246 -0.18416,1.73132 -0.47292,0.73503 -1.30223,0.68855 -1.5069,1.70209 m -52.05043,-4.39476 -0.72091,1.64803 1.67633,2.60939 0.11762,9.61354 -0.64546,1.64803 0.42092,1.64804 -0.29915,1.92271 -3.70808,-1.2107 -2.33472,0.39494 -2.60939,-1.08162 -7.9655,-0.0253 h -16.06832 v -17.16703 h 32.13668 m 47.79301,25.13253 c 0.42339,-1.00151 1.39744,-1.78338 1.61032,-2.88406 0.24236,-1.25311 0.24949,-3.28408 -0.0158,-4.5321 -0.26892,-1.26514 -0.92646,-2.36191 -0.90041,-3.70808 0.0301,-1.55696 1.02382,-2.57304 1.41214,-3.98275 0.19469,-0.70678 -0.31669,-1.38075 -0.16944,-2.06004 0.35905,-1.65638 1.76951,-0.21705 2.73252,-0.90274 0.96173,-0.68477 0.7713,-1.35893 1.23994,-2.2506 0.35517,-0.67578 1.22554,-0.86383 1.58085,-1.53041 0.31865,-0.59778 -0.0668,-1.39682 -0.074,-2.04573 1.54916,0.0804 3.21263,1.2646 4.53209,2.02157 0.4808,0.27583 1.12837,0.59639 1.35526,1.13918 0.17051,0.40792 -0.10962,0.8153 -0.0365,1.23401 0.27176,1.55551 0.29119,2.82334 -0.28589,4.39476 -0.52998,1.44319 -2.84697,2.47888 -1.57418,4.25149 1.41602,1.9721 2.27607,-0.31308 3.29405,-1.11129 0.52427,-0.41109 1.22492,-0.99531 1.79937,-0.33879 0.41656,0.47605 0.37228,1.14386 0.45027,1.73069 0.20361,1.53202 0.86093,4.08347 -0.0229,5.49291 -0.55855,0.89073 -1.6569,1.32413 -2.22249,2.21021 -0.57404,0.89932 -0.55956,2.3123 -1.69753,2.7889 -1.02732,0.43025 -2.83398,0.0829 -3.94354,0.0829 h -9.06419 m 69.62947,-20.18843 0.26928,6.31747 0.0506,3.29607 1.46546,3.43341 -2.33472,0.91409 -4.25742,-0.0901 0.22498,-3.98275 1.13408,-2.33472 0.53186,-2.19536 1.50084,-1.65545 1.14033,-3.70268 h 0.27467 m -151.06976,0.96136 v 23.75917 H 73.860619 v -17.30437 -4.5321 l 0.14115,-1.7025 1.918894,-0.2202 h 5.630786 22.935161 m 140.63231,0.27467 c 0.0367,4.43602 0.75535,9.03098 0.39918,13.45895 -0.11158,1.38733 -0.75746,2.72897 -0.94852,4.12009 -0.21644,1.57581 0.75937,4.83666 -1.00109,5.80224 -0.56105,0.30771 -1.45533,-0.70818 -1.88298,-1.01475 -0.84276,-0.60415 -2.02599,-1.07484 -2.65919,-1.90937 -0.69844,-0.92051 -0.98167,-2.56685 -2.15986,-3.05085 -1.52619,-0.62695 -4.24462,-0.10195 -5.89317,-0.10195 h -13.73363 c 0.96607,-1.36761 3.61891,-2.36906 4.04794,-3.98476 0.20173,-0.75972 -0.40127,-1.57504 -0.47719,-2.3327 1.00298,-0.0542 1.83808,-0.4644 2.88406,-0.40608 0.98507,0.0549 1.90227,0.57513 2.88406,0.66643 1.89763,0.17645 4.93907,-0.69706 6.44727,-1.87067 1.64916,-1.2833 0.30423,-3.63007 1.08979,-5.11715 0.34995,-0.66244 0.99158,-1.02879 1.52713,-1.52511 0.62914,-0.58306 1.17929,-1.27995 1.92271,-1.72465 2.30933,-1.38141 4.96973,-1.00967 7.55349,-1.00967 m 8.10284,0 c -0.14077,1.72364 -1.39196,2.24938 -2.03079,3.70808 -0.30651,0.69989 -0.29556,1.47997 -0.52837,2.19738 -0.28587,0.88091 -0.98285,1.5791 -1.24451,2.47205 -0.38834,1.3253 -0.17908,2.88971 -0.17908,4.25742 h -2.19738 l -0.27468,-12.63493 h 6.45481 m -89.68057,9.61354 c 0,1.46541 -0.17532,3.17585 0.87807,4.36942 1.07046,1.21291 3.23942,1.95186 3.35911,3.87075 0.15393,2.46813 -2.41422,2.11314 -3.50111,3.70861 -0.80668,1.18416 0.0437,1.3364 0.1562,2.47152 0.0657,0.66249 -0.70078,1.57915 -1.20816,1.93681 -0.63087,0.44471 -1.24369,-0.07 -1.88149,-0.21608 -0.94847,-0.21729 -2.05248,-0.0727 -3.02139,-0.0727 h -14.69498 c 0,-4.25116 -2.00304,-7.60279 -3.18618,-11.53625 -0.31744,-1.05537 0.28132,-1.98904 0.31717,-3.0214 0.019,-0.54743 -0.37744,-1.01647 -0.5644,-1.51069 h 23.34716 m -19.91375,19.63908 h -19.36441 -5.90546 c -0.82695,0 -1.9311,0.19244 -2.72638,-0.0437 -0.58565,-0.17387 -0.43232,-0.99484 -0.43235,-1.46705 -7e-5,-0.9793 0.40816,-3.18079 -0.33423,-3.92318 -0.55104,-0.55104 -1.70402,-0.33424 -2.4125,-0.33424 h -6.31746 v -10.84956 h 16.34301 c 2.44214,0 5.4495,-0.47699 7.82817,0.0727 0.82377,0.19037 1.40366,0.85574 2.19737,1.1005 0.73328,0.22612 1.33601,-0.43501 2.06005,-0.47844 1.28696,-0.0772 3.60839,0.8701 4.48695,1.80273 0.69148,0.73406 0.92544,1.79143 1.23539,2.7213 0.57635,1.72904 1.39393,3.54573 1.65259,5.35611 0.12289,0.86008 -0.0812,1.75922 0.11392,2.60939 0.28049,1.2223 1.14987,2.26427 1.57534,3.43341 m 113.3024,-15.519 -0.41201,0.27467 0.41201,-0.27467 m -0.82402,0.41201 -0.27467,2.88406 -9.61354,-0.13734 c 0.17571,-0.61918 0.3358,-2.23434 0.90137,-2.59329 0.4703,-0.29848 1.82569,-0.0161 2.3947,-0.0161 2.14543,0 4.51114,0.52234 6.59214,-0.13734 m -77.18297,1.64804 1.20678,4.25742 -0.10755,3.57074 -0.40026,9.61354 0.45419,4.12009 -1.54123,2.60939 -0.98529,4.53209 c -1.01622,0.22165 -1.50579,0.75605 -1.64803,1.78537 -1.2564,-0.36179 -1.70003,-0.61073 -2.88406,0.13734 -0.3576,-1.27204 -0.51332,-2.38982 -1.4181,-3.428 -0.74477,-0.85458 -2.13511,-1.4718 -2.64244,-2.48975 -0.63881,-1.28173 0.88272,-2.18687 0.42493,-3.42112 -0.41291,-1.11323 -1.25784,-1.64313 -2.40719,-1.51069 -0.27683,-2.04404 -2.29252,-2.83434 -3.18385,-4.5321 -0.34,-0.64762 -0.20406,-2.16273 -0.0919,-2.88406 0.22512,-1.44731 2.04315,-2.4236 2.39596,-3.98275 0.14493,-0.64048 -0.72234,-1.35372 -0.39092,-1.86517 0.42418,-0.6546 1.98583,-0.99914 2.63652,-1.5338 1.606,-1.31962 0.77454,-3.42285 0.2822,-4.97854 h 10.30021 m 36.66878,2.19738 c 0.43845,0.97042 1.24498,0.9613 2.19738,0.96135 h 4.9441 9.75088 c 1.02643,0 2.92047,-0.36367 3.83099,0.14114 0.88365,0.48993 1.38676,2.22783 2.07446,3.0176 v 0.13733 c -1.0673,1.17293 -1.69816,2.69025 -1.28137,4.25742 0.22689,0.85318 1.62929,1.87787 0.96093,2.7392 -0.55273,0.71233 -1.48654,0.78068 -2.28894,1.00374 -0.55699,0.15482 -0.95717,0.61043 -1.5107,0.74561 -0.91949,0.22454 -2.07695,0.0436 -3.0214,0.0436 h -17.30437 v -8.51485 l 0.0479,-3.38668 1.60014,-1.14542 m 38.59148,0.54935 c 0,0.75674 0.24448,2.05843 -0.25517,2.68919 -0.46464,0.58656 -1.54006,0.60351 -2.21688,0.60678 -1.92423,0.009 -3.73093,0.30411 -5.63079,0.54944 v -3.84541 h 8.10284 m 2.33472,2.06004 c -0.83579,-0.42151 -0.68668,-1.23599 -0.68668,-2.06004 1.04214,0.17222 1.10207,1.27448 0.68668,2.06004 m -198.038839,31.7246 c -0.800355,0 -2.215482,-0.27196 -2.840402,0.33422 -0.761305,0.73849 -0.04377,3.19591 -0.04366,4.19787 -5.435426,-4.46224 -10.304425,-9.67901 -15.518994,-14.39699 -1.706883,-1.54434 -3.427262,-3.09029 -5.081336,-4.69126 -0.643919,-0.62325 -1.648823,-1.24993 -2.056333,-2.06164 -0.545346,-1.08627 -0.141152,-3.19043 -0.141152,-4.39465 v -8.24017 c 0,-1.14773 -0.283172,-2.7242 0.04366,-3.82507 0.164334,-0.55352 0.877703,-0.43216 1.329703,-0.43236 h 4.257424 15.106986 3.708078 c 0.384943,2e-5 1.095295,-0.12607 1.369549,0.22021 0.385516,0.48676 0.14115,1.79591 0.14115,2.38918 0,2.10888 -0.12711,4.2185 -0.137231,6.31747 -0.03952,8.19568 -0.137441,16.3965 -0.137441,24.58319 m 13.733622,-33.51005 c 0,1.46487 -0.007,2.92992 1.05e-4,4.39476 0.0029,0.59597 -0.0039,1.40882 0.580079,1.76078 0.505757,0.3048 1.326128,0.16193 1.891869,0.16193 h 4.532095 c 0.512857,0 1.839153,-0.24128 2.114512,0.31833 0.226818,0.46096 0.08287,1.24018 0.08287,1.74171 v 4.25743 15.24432 H 60.126995 l 0.274673,-27.87926 h 11.810916 m -40.926199,0.13734 v 12.36026 c 0,1.38699 -0.469985,3.83213 0.161922,5.08091 0.966773,1.91056 3.796948,3.58759 5.331528,5.08398 4.053322,3.95247 8.265162,7.7966 12.458389,11.60099 1.358538,1.23257 2.662554,2.52532 4.021959,3.75535 0.847296,0.76666 2.020609,1.56101 2.663857,2.50765 0.527023,0.7756 0.675609,2.00225 1.10579,2.87177 0.170308,0.34425 0.540498,0.68666 0.504521,1.09869 -0.04472,0.51216 -0.582489,0.91603 -0.783221,1.37337 -0.275284,0.62719 -0.08634,1.282294 -0.238004,1.922704 -0.368982,1.558084 -1.667784,2.635624 0.04313,3.982754 v 0.13734 c -2.378941,0.8909 -5.452761,0.41503 -7.965502,0.74496 -0.649736,0.0853 -2.401816,0.48465 -2.940541,0.0752 -0.652125,-0.4956 -0.379259,-2.03739 -0.864076,-2.7375 -1.113359,-1.60777 -2.927503,-2.432234 -4.367103,-3.567568 -0.41992,-0.33113 -0.467976,-0.94529 -0.92172,-1.26407 -0.598952,-0.4208 -1.49081,-0.22022 -2.168134,-0.48524 -1.302926,-0.5098 -2.470768,-1.61652 -3.845415,-1.91369 -0.812919,-0.17574 -2.411597,0.33133 -3.075865,-0.19478 -0.548931,-0.43476 -0.143012,-1.97872 -0.240551,-2.60557 -0.107683,-0.69204 -0.965471,-1.70389 -1.344432,-2.32921 -0.431492,-0.712 -1.320699,-0.9729 -1.886148,-1.55753 -0.842851,-0.87144 -2.024752,-2.57386 -2.543583,-3.66675 -0.450582,-0.94914 0.740598,-2.06994 0.120064,-3.1438 -0.67518,-1.16843 -2.162995,-0.44968 -2.428393,-2.21232 2.22557,-0.58104 0.764164,-1.66807 0.678626,-3.0214 -0.04038,-0.63881 0.764589,-1.10423 0.294807,-1.74711 -0.895401,-1.22534 -2.593184,-0.43038 -3.033476,0.64843 -0.803014,-0.34078 -0.582824,-0.96862 -0.957221,-1.64804 -0.484663,-0.87952 -1.229171,-1.63582 -1.789398,-2.47205 -0.525852,-0.78492 -1.356828,-1.68223 -1.590705,-2.60939 -0.322258,-1.27754 0.0234,-2.76896 -0.542139,-3.98275 -0.453321,-0.97296 -2.062775,-2.22489 -2.178623,-3.16075 -0.160033,-1.2928 0.977571,-2.36539 1.204976,-3.56873 0.335379,-1.77469 -0.174986,-3.58076 -0.189685,-5.35611 h 17.304366 m 180.871835,0.68668 c 0.68767,2.32644 -0.0933,5.0064 -0.31916,7.27882 -0.14861,1.49494 -0.24316,3.69867 -1.23318,4.94209 -1.19591,1.50202 -3.31914,1.91508 -4.76258,3.13383 -0.7419,0.62642 -0.91516,3.29858 -1.80064,3.39632 -0.7788,0.086 -0.85724,-1.11308 -1.5109,-1.33733 -0.43167,-0.1481 -0.92315,0.12876 -1.36044,0.15789 -0.91191,0.0607 -2.28269,0.0353 -3.15873,-0.21755 -1.45534,-0.42008 -2.15056,-1.88689 -3.57074,-2.38442 l 0.13733,-5.63079 -0.13733,-8.51484 c 1.1289,-0.3337 3.70679,-0.46841 4.80677,-0.009 1.54032,0.64329 2.95333,1.9955 4.66943,2.18256 3.12058,0.34014 5.59586,-1.91852 8.24017,-2.99756 m 46.69432,0.41201 -0.412,-0.27467 0.412,0.27467 m -66.05873,0.41201 v 11.53624 l -0.0829,4.61528 -2.59328,0.90954 -0.48438,1.11755 -1.28245,1.06129 -0.70851,1.19914 -1.44066,-0.37608 -3.57074,1.64687 -2.88406,-0.42271 2.00982,-4.25743 -0.53409,-3.0214 0.58431,-13.32161 3.29607,-0.67226 7.69083,-0.0144 m 49.99039,4.66943 -1.24005,1.9227 0.5326,1.37877 -0.56629,3.01599 -2.43433,3.57075 h -0.27468 c -0.51051,-0.71874 -1.48402,-1.10225 -1.9189,-1.82999 -0.75744,-1.26754 0.57649,-1.62064 1.36416,-2.07265 0.71729,-0.4116 1.63373,-1.42204 1.72421,-2.27749 0.11156,-1.05455 -1.09783,-1.77994 -1.34665,-2.74673 -0.19548,-0.75952 0.29107,-3.11845 1.41861,-2.90451 0.99991,0.18971 1.93263,1.3802 2.74132,1.94316 m -129.2334,0 v 21.56177 H 82.924811 l 0.137336,-7.14148 V 58.401892 H 113.5508 m 133.07882,0.13734 v 0.13733 l -0.96135,0.13734 0.96135,-0.27467 m -74.16157,23.34716 c -0.001,1.49588 -0.75582,0.8991 -1.36309,1.92928 -0.45641,0.77425 -0.14251,1.83552 -1.10896,2.1908 0,-0.79179 0.13524,-1.88246 -0.69421,-2.3309 -1.07639,-0.58194 -3.44077,-0.27848 -4.66191,-0.27848 -3.62385,0 -7.2311,-0.13734 -10.84956,-0.13734 -0.944,0 -3.55154,0.4586 -4.29281,-0.14115 -0.32559,-0.26342 -0.23866,-0.86509 -0.23928,-1.23221 v -3.57075 c 0,-3.15237 0.67102,-6.79961 -0.17898,-9.8882 -0.27367,-0.99442 -1.4056,-1.47744 -1.74373,-2.47206 1.45635,-1.15817 -0.48468,-2.13833 -1.29229,-2.9292 -0.67433,-0.66037 -1.15549,-1.46142 -1.59177,-2.28957 1.29133,-0.38172 2.91395,-0.13734 4.25742,-0.13734 h 8.65218 c 1.25803,0 3.43405,-0.41216 4.48844,0.42229 0.89497,0.70827 -0.12573,2.695 0.39696,3.6978 0.68911,1.32209 2.06375,2.17443 2.84188,3.4334 0.40849,0.66091 0.27841,1.58043 0.84511,2.16051 0.47266,0.48382 1.41832,-0.11667 1.70961,0.36803 0.25316,0.42127 -0.26373,1.06599 -0.39845,1.45421 -0.22842,0.65819 -0.13702,1.53637 0.0622,2.19686 0.39114,1.29683 2.28184,1.99853 3.09516,3.04523 0.9488,1.22106 0.51597,3.96875 2.06608,4.50879 m -26.36856,-17.0297 c -1.37101,2.04234 0.99504,2.32049 1.46758,4.12009 0.88756,3.38007 0.0526,7.53569 0.0431,10.9869 h -32.41133 v -15.79367 h 21.01244 c 3.13299,0 7.04798,-0.65478 9.88821,0.68668 m 70.8655,1.09869 1e-4,1.09869 c 0.016,2.32542 1.83704,0.8595 3.0213,0.42971 0.39922,-0.14489 2.49078,-1.08026 2.03292,0.12229 -0.48314,1.26893 -1.63158,1.93104 -2.57633,2.7853 -0.31811,0.28763 -0.58286,0.81552 -0.99601,0.96908 -0.74981,0.27868 -1.28607,-0.38357 -2.01904,0.25719 -1.12413,0.98273 -1.94445,2.64544 -2.63683,3.95128 -0.31117,0.58687 -0.48642,1.40238 -1.01889,1.83984 -0.36111,0.29668 -0.88269,0.20519 -1.28838,0.42016 -0.97492,0.51662 -2.21626,1.22619 -3.43341,0.96412 -0.55558,-0.11963 -0.8927,-0.75346 -1.27173,-1.12486 -1.37643,-1.34874 -2.23056,-2.38907 -2.58597,-4.29664 l 1.41427,-0.71794 1.35227,-3.3782 5.19896,-3.73203 c 1.5649,0.55544 3.15429,0.41201 4.80677,0.41201 m 2.19738,0 -0.54934,0.41201 0.54934,-0.41201 m 14.69498,0 c 0.2708,0.91613 0.58483,4.13139 -0.41201,4.5321 0,-0.8589 0.453,-2.56983 -0.0829,-3.2752 -0.75139,-0.98905 -1.92224,0.43612 -2.30207,1.07782 -0.90151,1.52303 -0.45781,3.38225 0.0502,4.9441 -2.46082,-0.27243 -0.66845,-2.16115 -1.4753,-3.43128 -0.41346,-0.65086 -1.09725,-0.77201 -1.67548,-1.19681 -0.68085,-0.5002 -1.41801,-1.71212 -1.65598,-2.51339 2.3891,0 5.22752,0.41645 7.55349,-0.13734 m -8.78952,1.23603 -1.09869,-0.54935 c 0.51343,-0.16084 0.79689,0.15302 1.09869,0.54935 m 1.09869,1.5107 c 0.57461,0.81516 1.25715,1.32725 2.19738,1.64803 -0.20478,1.01349 -1.32401,1.74227 -1.00756,2.88406 0.5975,2.15589 4.02207,1.31504 4.44097,3.29607 -2.43231,0.13326 0.0419,1.87318 -0.27468,3.0214 -0.92749,-0.32708 -2.03444,0.30234 -1.38746,1.37336 0.72108,1.19369 1.72369,1.55776 3.0355,1.5107 v 0.41201 l -20.4631,-0.27467 h -6.86681 l -3.57075,-0.13734 c 0.66424,-0.97073 2.27673,-2.97728 3.57021,-3.02744 0.69719,-0.027 1.20199,0.92598 1.92324,1.07337 1.73278,0.3541 4.03602,-0.62599 5.49292,-1.36658 1.95099,-0.99177 2.32554,-4.18746 3.77971,-5.72267 0.76298,-0.80549 1.449,0.42681 2.2492,-0.10586 0.5365,-0.35714 0.67696,-1.05776 1.0633,-1.53921 0.52105,-0.6493 1.34376,-0.95675 1.90883,-1.55986 0.43672,-0.46613 0.78177,-1.3155 1.3634,-1.61095 0.44851,-0.22782 0.88038,0.25363 1.30967,0.32851 0.40754,0.0711 0.84301,-0.11314 1.23603,-0.20293 m 9.61354,0.54934 c 0.87511,0.62989 1.48441,1.51701 1.51069,2.60939 h -1.64803 l 0.13734,-2.60939 m -41.20088,0.54935 c 1.09264,0.76955 1.90782,1.86765 3.29607,2.14535 1.15424,0.23089 3.12787,-0.27099 4.11204,0.40957 0.83651,0.57845 0.5552,1.93391 0.84649,2.80119 0.39824,1.18576 1.40124,1.92763 1.90829,3.0214 -2.13944,0.92333 -3.17079,3.68185 -5.49345,4.20337 -1.47535,0.33127 -3.29582,0.054 -4.80677,0.054 -3.7139,0 -7.40809,-0.13733 -11.12424,-0.13733 -1.39852,0 -4.65578,-0.62901 -5.35611,0.82401 h -3.84541 l 0.54934,-2.33471 c 0.91047,0.32532 1.92955,0.76359 2.5971,-0.28908 0.21147,-0.33349 0.20126,-0.82407 0.50515,-1.09329 0.40809,-0.36152 0.97631,-0.31983 1.30099,-0.82985 0.38158,-0.5994 0.0797,-1.54811 0.83388,-1.88753 0.8809,-0.39644 1.48599,0.24272 2.31637,0.36179 0.80472,0.11538 2.10201,-0.26391 2.88353,-0.38403 0.53486,-0.0822 0.73204,-0.72424 1.24885,-0.82508 0.79332,-0.15482 1.6624,0.47191 2.42892,-0.099 0.54258,-0.40413 0.49087,-1.12276 0.79563,-1.6651 0.27625,-0.49156 0.85557,-0.5451 1.23782,-0.91896 0.29762,-0.29109 0.362,-0.7704 0.6959,-1.02027 0.76665,-0.57372 1.86107,-0.3418 2.59804,-1.15253 0.30691,-0.33761 0.30021,-0.78777 0.47157,-1.18399 m 39.55284,3.0214 v 0.13733 h -0.41201 l 0.41201,-0.13733 m 2.47205,0.68668 c -0.27078,0.93775 -0.65759,1.36165 -1.64803,1.37336 l -0.13734,-1.37336 h 1.78537 M 57.105598,105.64554 c 0.646672,-0.76342 1.545364,-1.31218 0.957645,-2.47004 -0.24645,-0.48553 -0.847995,-0.76085 -0.758103,-1.37738 0.08244,-0.56546 0.565028,-0.97614 0.741996,-1.50869 0.219441,-0.660364 0.0071,-1.438048 0.338148,-2.054638 0.322129,-0.60008 1.230711,-0.9507 1.345918,-1.65292 0.09822,-0.59866 -0.60795,-0.91233 -0.934547,-1.28116 -0.403048,-0.45518 -0.774138,-1.44477 -1.013382,-2.01544 -0.748091,-1.78439 -0.465866,-4.02476 -0.815011,-5.90545 0.762457,-0.22538 1.768011,0.10202 2.464001,-0.27849 1.293135,-0.70698 0.694732,-4.24104 0.694732,-5.48964 h 15.518995 3.982751 c 0.428707,0 1.205615,-0.14361 1.565167,0.14115 0.387248,0.30671 0.220204,1.21152 0.220204,1.64423 v 4.80676 17.579048 4.25742 c 0,0.40932 0.147328,1.21579 -0.220204,1.50689 -0.359535,0.28475 -1.136469,0.14115 -1.565167,0.14115 h -3.845414 c -3.428155,0 -6.296315,-1.35181 -9.476201,-2.55122 -3.046863,-1.14923 -6.251795,-2.11211 -9.201528,-3.49158 m 51.775772,2.19738 c -1.25286,0.37034 -2.81692,0.13734 -4.12009,0.13734 h -7.965509 c -1.30026,0 -3.783159,-0.54108 -3.982751,1.23602 l -5.218777,-0.13733 -2.016388,0.31833 -0.318328,2.15372 -2.19738,0.13734 V 81.611692 h 19.639083 4.80678 l 1.64369,0.22021 0.005,1.7025 -5.3e-4,4.80677 -0.27467,14.008298 v 5.49345 m 39.27817,-9.201528 c -1.67919,-0.39441 -2.6795,-1.08489 -4.5321,-0.94896 -1.06856,0.0784 -2.27125,0.95552 -3.29607,0.86228 -0.77109,-0.0702 -1.52631,-0.59254 -2.33472,-0.6976 -1.39066,-0.18072 -3.03339,0.0263 -4.37653,-0.35807 -0.60888,-0.17425 -0.70395,-0.96417 -1.39212,-1.08989 -1.02871,-0.18794 -2.08291,0.10721 -3.1582,-0.20082 -0.81119,-0.23237 -1.38797,-0.9213 -2.19738,-1.16513 -0.60086,-0.181 -1.35777,0.0282 -1.87905,-0.38584 -0.61364,-0.48731 -0.31846,-2.04318 -0.31846,-2.74545 v -5.90546 c 0,-0.72009 0.20962,-1.8424 -0.2202,-2.46399 -0.65646,-0.94932 -2.61871,-0.5574 -3.62522,-0.5574 h -6.59213 c -1.1011,0 -2.37361,0.17593 -3.43341,-0.13734 0.0611,-0.29906 0.0122,-0.87928 0.25147,-1.09488 0.39792,-0.3585 1.58028,-0.14115 2.08325,-0.14115 h 5.63078 21.28712 5.49345 c 0.50482,0 1.54188,-0.1956 1.9581,0.14115 0.68897,0.55745 0.16875,3.00232 0.29956,3.84161 0.66585,4.27198 0.35173,8.71963 0.35173,13.04694 m 58.09322,-14.55764 c -0.73156,1.44476 -2.50266,1.47158 -3.8434,2.00493 -0.70708,0.28128 -0.90586,1.11415 -1.53804,1.4927 -1.04581,0.62622 -2.35068,0.75438 -3.40256,1.34728 -0.48245,0.27194 -0.62514,0.77816 -1.03141,1.10866 -0.74456,0.60567 -1.33992,0.4298 -1.44616,1.59992 h -25.13253 c 0.0221,-2.47561 2.36255,-4.35529 2.47205,-6.86681 1.90048,0 4.02889,0.2721 5.90536,-0.0203 0.65511,-0.1021 0.97825,-0.7357 1.65015,-0.79562 2.34003,-0.20869 4.78933,-0.008 7.13947,-0.008 6.31611,0 12.94411,0.77536 19.22707,0.13733 m 27.32992,0.41201 0.13733,0.68668 -0.13733,0.13734 c -0.87673,-0.0512 -2.35564,0.19033 -2.97976,0.85528 -0.61077,0.65073 -0.35578,1.74397 0.64514,1.67537 0.46096,-0.0316 0.92404,-0.23028 1.37326,-0.33327 l 0.54935,1.92271 c -1.7393,0.0144 -1.77309,0.72388 -2.95251,1.65175 -0.40737,0.32047 -1.05418,0.36691 -1.20372,0.96314 -0.12634,0.50372 0.40022,1.06392 0.58549,1.5052 -2.07658,0.30667 -5.48534,2.23194 -5.49345,4.53209 -3.1973,0 -3.79072,-4.17446 -6.72948,-5.12965 -1.35599,-0.44075 -2.87506,-0.15816 -4.25732,-0.40905 -0.89255,-0.16199 -1.01063,-0.8907 -1.66256,-1.36891 -0.49779,-0.36513 -1.30756,-0.50385 -1.90829,-0.60127 -1.40503,-0.22785 -3.55148,-0.39628 -4.9441,-0.11127 -1.14176,0.23368 -2.18548,0.90497 -3.29607,1.1272 -1.27205,0.25455 -2.68163,0.0122 -3.98275,0.17548 0.85672,-1.63678 2.26506,-1.84626 3.84541,-2.53086 0.80654,-0.34938 1.23124,-1.17076 1.96732,-1.50688 1.88884,-0.86252 4.31375,-1.38208 5.3115,-3.51575 l 25.13254,0.27467 m -110.69301,0.27468 v 7.00414 c 0,0.96379 -0.22257,2.26011 0.17559,3.15874 0.69252,1.56299 2.02283,1.45753 3.39515,1.85541 0.63009,0.18269 1.0642,0.71716 1.64804,0.98701 0.99553,0.46013 2.62891,0.54372 3.70807,0.45365 1.09972,1.543794 4.00868,1.352174 5.76813,1.373894 1.02339,0.0126 1.76152,0.811774 2.74672,0.796254 0.91762,-0.0144 1.823,-0.707154 2.74673,-0.870434 2.03652,-0.35998 3.16994,0.35747 4.9441,1.122964 0.58661,0.25309 1.49633,0.28378 1.97718,0.72706 0.37915,0.34952 0.2202,1.1939 0.2202,1.65703 0,1.48433 0.16545,2.9189 0.28644,4.39476 0.21397,2.60998 1.88559,4.92962 2.01934,7.5535 0.0434,0.85208 -0.48765,1.6463 -0.6447,2.47205 -0.4415,2.32127 -0.49127,3.59125 -3.17178,3.70808 -0.19393,-0.67431 -0.90476,-1.24965 -1.61878,-0.81035 -1.3605,0.83705 -1.36079,3.27138 -2.65296,4.29356 -0.60065,0.47515 -1.68886,1.02042 -2.45773,1.09349 -0.86777,0.0825 -1.82456,-0.0981 -2.59392,0.46734 -0.67374,0.49518 -0.3246,1.09147 -0.0155,1.68543 -1.36788,0.65828 -3.49799,-0.0446 -3.57075,2.19738 -1.42771,0.41094 -0.32949,1.48318 -0.45387,2.47205 -0.34206,2.71972 -0.30076,4.73181 0.45387,7.41616 -2.04141,-0.66989 -3.94446,-1.07182 -5.90545,-2.04361 -0.54948,-0.27231 -1.2601,-0.343 -1.72116,-0.76214 -1.65771,-1.507 -0.64696,-3.10725 -1.48113,-4.74774 -0.82526,-1.62297 -2.53661,-2.6674 -3.577,-4.12009 -1.07368,-1.49919 -1.52238,-3.37837 -2.47215,-4.9387 -0.65553,-1.07695 -2.10045,-2.36491 -3.10883,-3.12048 -0.64373,-0.48234 -1.57473,-0.31711 -2.33471,-0.31833 -1.4387,-0.002 -3.45194,-0.73656 -4.53136,0.71805 -0.58075,0.78262 -0.48837,3.5186 -1.92885,3.35625 -0.61932,-0.0698 -1.24466,-0.59094 -1.77997,-0.88399 -1.02803,-0.5628 -2.43901,-1.28843 -3.1459,-2.24178 -1.23313,-1.66304 -1.30999,-3.79655 -2.7266,-5.45519 -0.52954,-0.62002 -1.329297,-0.82412 -1.955667,-1.31508 -1.477265,-1.15791 -3.315246,-2.80866 -4.394766,-4.34114 h 11.124243 c 1.0466,0 3.26239,0.41637 4.08183,-0.33423 0.5474,-0.50141 0.45023,-1.32969 0.45027,-2.00049 v -4.53209 c 0,-3.563024 0.23179,-7.150608 0.27414,-10.712238 0.0288,-2.41689 -0.30401,-5.03606 0.13787,-7.41615 h 12.08559 m 45.45829,0.27467 c -0.7339,1.74516 -0.92033,2.60939 1.37337,2.60939 -0.24764,0.98226 -0.90169,1.78958 -1.22161,2.74672 -0.15265,0.45666 -0.0541,1.04784 -0.31369,1.45719 -0.26793,0.42253 -0.8067,0.59751 -1.09953,1.0208 -1.39549,2.01728 -3.04451,4.60495 -3.62499,6.998214 -0.20134,0.830134 0.21001,1.761774 0.21702,2.609394 h -11.81092 c -1e-4,-0.90141 0.0161,-2.04039 -0.71752,-2.703074 -0.38257,-0.34558 -1.13576,-0.20124 -1.29886,-0.750684 -0.29282,-0.98638 -0.0437,-2.38555 -0.0437,-3.41306 v -7.27882 c -5e-5,-0.7272 -0.66175,-2.80168 -0.26545,-3.35054 0.23383,-0.32384 0.88417,-0.22643 1.2268,-0.21819 1.14607,0.0276 2.28017,0.13532 3.43341,0.13532 4.72119,0 9.42232,0.13734 14.14563,0.13734 m 44.22227,21.149788 c -0.98916,-0.32842 -1.47918,0.26477 -1.5107,1.23602 h -0.13733 c -1.04194,-2.72115 -2.38376,-5.44405 -4.30215,-7.688814 -0.56159,-0.65712 -1.38007,-1.022944 -1.9316,-1.675384 -1.27867,-1.51264 -1.6461,-3.08375 -3.37979,-4.23209 1.65425,-1.90595 3.62972,-1.78625 5.90546,-1.78537 0.93423,3.6e-4 2.00246,-0.13115 2.88195,0.25464 1.10068,0.48283 1.40434,1.49953 2.74883,1.7416 1.30346,0.23469 2.89753,-0.0918 4.12009,0.4508 1.01331,0.4497 1.76385,1.41649 2.47894,2.22239 0.38138,0.4298 1.11175,1.04613 1.20508,1.64263 0.0877,0.56069 -0.91312,1.171644 -1.17594,1.655458 -0.42961,0.79085 -0.74998,2.05339 -1.463,2.62942 -0.98677,0.79718 -2.42644,1.75441 -3.51713,2.40158 -0.6847,0.40629 -1.41095,0.50106 -1.92271,1.14712 m -12.9096,-13.046948 c 0.001,1.78792 1.24564,1.77252 2.14809,3.02733 0.65117,0.90543 1.0576,2.00933 1.77001,2.86573 0.53335,0.641144 1.32823,0.967848 1.89548,1.567818 1.01522,1.07379 1.78246,2.5367 2.53636,3.8007 0.75586,1.26725 1.03698,3.60816 2.08761,4.53209 -0.5359,2.08391 -1.91639,3.61644 -1.92271,5.90546 -1.13116,-0.0234 -2.23951,-0.44276 -2.60939,0.96135 -2.73599,-0.21775 -5.48461,-0.54492 -8.24017,-0.54934 -0.85854,-0.001 -2.93125,0.23827 -3.63063,-0.27849 -0.41846,-0.30921 -0.44025,-1.17773 -0.55462,-1.64422 -0.46016,-1.87678 -0.10634,-3.43922 0.19244,-5.21878 0.22885,-1.36309 -0.35503,-3.06151 -0.62174,-4.39476 -0.68052,-3.40189 -1.94886,-7.102378 -1.97759,-10.574888 h 8.92686 m -22.38581,0.27467 -1.36108,15.656338 -0.0123,7.9655 c -1.27627,-0.42726 -2.80552,0.89532 -3.81616,0.39537 -1.56919,-0.77626 -0.0668,-2.75378 -0.91485,-3.63188 -0.51657,-0.5349 -1.60192,-0.33423 -2.27314,-0.33423 h -5.90546 c 0.10832,-2.51534 2.77261,-3.80447 3.10809,-6.31747 0.14468,-1.08376 -0.58957,-2.14089 -0.82499,-3.15873 -0.19997,-0.86456 -0.26338,-2.53643 -0.2131,-3.43341 0.10642,-1.898298 1.739,-3.613558 2.56382,-5.218778 0.29605,-0.57616 0.47736,-1.6471 1.14914,-1.89008 0.71603,-0.25899 1.8325,-0.0326 2.59455,-0.0326 h 5.90546 m 14.00829,20.051108 c -2.56922,-0.61167 -5.73752,-0.13734 -8.37751,-0.13734 -0.83992,0 -2.24403,-0.25063 -2.79579,0.56768 -0.52205,0.77425 0.38894,2.53172 0.46108,3.41507 -0.75606,-0.22189 -1.44485,-1.85395 -2.30345,-1.35725 -0.32131,0.18588 -0.43345,0.58382 -0.71795,0.80791 l -0.11402,-6.18013 1.48738,-17.304378 h 7.27882 c 0.6524,0 2.1294,-0.27474 2.6644,0.14115 0.34324,0.26682 0.32045,0.97889 0.37491,1.36954 0.15522,1.11352 0.37908,2.20509 0.65139,3.29607 0.71585,2.867958 1.70639,6.246338 1.79682,9.201548 0.023,0.75281 -0.41761,1.33657 -0.45905,2.06004 -0.0753,1.31403 0.37301,2.85338 0.053,4.12009 m -27.46724,-9.33887 c 0.54207,1.89622 0.89337,2.94577 -0.0924,4.80677 -0.81889,1.54595 -3.21945,3.35181 -2.08038,5.48742 0.43521,0.81597 1.39053,0.69271 2.17279,0.69271 h 5.90546 l 0.412,2.06005 c -0.44237,-0.019 -0.94531,-0.16416 -1.37336,-0.0146 -0.98001,0.34235 -2.19833,2.07896 -1.06732,2.93407 0.74884,0.56616 1.84846,-0.16024 2.55502,0.33444 0.45514,0.31864 0.22349,0.7536 0.023,1.14087 -1.26592,-0.18684 -2.11842,-0.4318 -1.92271,1.23602 l -3.57074,0.27467 c -0.10238,-0.99237 -0.66794,-1.04869 -1.22639,-1.71649 -1.21565,-1.4537 -3.37058,-3.15092 -4.26706,-0.34355 l -3.4334,-0.89025 -2.74673,-0.0711 c 0.1453,-1.6661 1.23966,-3.47415 1.19936,-5.08144 -0.0403,-1.60737 -0.81189,-3.16791 -1.27681,-4.66944 -0.62464,-2.01732 -0.97763,-4.06595 -1.02124,-6.18013 h 11.81092 m 43.39825,12.08559 c 1.15757,0.32092 1.07394,1.28368 1.27183,2.33472 0.26628,1.41428 0.75197,2.91071 1.25861,4.25742 0.609,1.61874 1.75107,3.08682 2.31373,4.66943 0.35224,0.99078 0.018,2.10603 0.40597,3.15874 0.74207,2.01374 1.88957,4.12601 1.96563,6.31746 0.0866,2.49678 -1.14542,4.39082 -1.44765,6.72948 h -1.09869 l -3.51129,-3.46425 -2.17629,-3.94597 -1.41628,-1.65408 -0.50422,-2.05994 0.62439,-1.64262 -1.39382,-1.24144 c 0.38978,-1.6371 0.71751,-4.1919 -0.35129,-5.63067 -0.68071,-0.91635 -1.74336,-1.4171 -2.46263,-2.33483 -0.95537,-1.21898 -2.04584,-3.1361 -3.77822,-3.28314 -1.89075,-0.16049 -3.10467,2.42995 -5.05219,1.86601 -0.75142,-0.21758 -1.82475,-1.73248 -2.5013,-2.26191 -1.8986,-1.48572 -4.95028,-2.30631 -7.27882,-1.4024 l -0.41201,-1.5107 c 2.01925,-0.59688 4.75989,-0.13733 6.86681,-0.13733 0.91307,0 2.12367,-0.20995 3.00306,0.0436 0.7738,0.22316 0.60746,1.36745 1.52957,1.62324 2.14843,0.59598 4.9093,0.22803 7.14095,0.38086 1.2964,0.0888 2.8339,-0.18251 4.08936,0.19328 0.76016,0.22754 0.90573,1.35457 1.95132,0.97163 0.8719,-0.31932 0.74927,-1.25369 0.96347,-1.97664 M 25.243591,145.61039 c -0.448038,0.85746 -0.393968,2.85712 0.549345,3.29607 -0.57761,0.41548 -3.142648,0.93429 -3.552515,0.10585 -0.374493,-0.75694 0.745215,-1.60676 -0.322253,-2.2405 -1.501064,-0.89114 -4.53594,0.54572 -4.914751,2.13465 -1.511735,0.004 -3.047982,1.17139 -4.119556,2.19748 -0.33654,0.32225 -0.89915,0.72286 -0.89915,1.24122 0,1.12927 1.936105,1.76499 2.821326,1.91741 v 0.13734 c -0.888691,0.63062 0.808736,3.22886 1.516633,3.71232 1.559791,1.06524 2.751672,0.43921 4.388825,0.29437 0.805151,-0.0712 1.526367,0.16841 2.334716,-0.0239 0.570965,1.96815 2.117685,-0.48061 2.884061,-0.96136 -0.677347,1.41434 2.302639,2.85308 0.997278,4.35651 -0.644585,0.7424 -1.847767,0.29118 -2.645208,0.82147 -0.432529,0.28763 -0.852918,1.08552 -1.38576,1.1467 -0.969535,0.11128 -1.653779,-0.72574 -2.733902,-0.20326 -1.352951,0.65448 -1.393153,2.43229 -1.968169,3.62946 -1.021697,2.12713 -3.264551,4.08077 -0.914302,6.30464 0.373157,0.3531 0.773002,0.61753 1.233906,0.83684 -0.346473,0.53106 -0.882438,1.09862 -0.779828,1.78537 0.111699,0.74757 0.812333,1.0951 1.31635,1.55531 0.968787,0.88457 1.446927,1.95337 2.896884,2.12744 0.730911,0.0877 2.30652,-0.74745 2.810307,-0.32478 1.169475,0.98113 -1.4269,6.41483 1.721789,5.29846 0.342486,-0.12143 0.663873,-0.31664 0.961354,-0.52254 0.415324,-0.28747 0.782759,-0.60182 1.09869,-0.9924 h 0.137336 c 0.451841,0.57531 0.917654,0.82259 1.648035,0.68668 0.409502,1.05699 2.221623,2.56208 2.609388,0.68668 h 1.510699 c -0.635666,2.25671 -0.991899,4.06149 -2.67742,5.85184 -1.234639,1.31142 -3.150187,1.52284 -3.777383,3.48702 -2.687588,-0.49895 -3.269842,1.65204 -5.219308,2.91278 -0.898079,0.5808 -2.013668,0.46725 -2.870602,1.06585 -0.577587,0.40346 -1.584187,1.70956 -1.282228,2.45784 0.355848,0.88182 1.717613,0.43378 2.36799,0.22159 1.067138,-0.34817 1.786196,-1.03232 2.746724,-1.53846 1.158844,-0.61065 2.314071,-0.64251 2.746725,-2.0982 1.939985,0.46187 2.882313,-0.76913 4.532096,-1.46079 0.555282,-0.23279 1.229513,-0.0524 1.745632,-0.34916 0.880144,-0.50602 0.860133,-1.62227 1.570253,-2.22303 0.887277,-0.75064 2.070195,-1.17921 2.941286,-1.94899 1.128797,-0.9975 1.94348,-2.31115 3.12101,-3.32415 0.377918,-0.3251 0.90057,-0.41925 1.247045,-0.77696 1.187878,-1.22642 4.574595,-4.86045 1.048354,-5.02391 1.922938,-1.76924 3.743301,-3.25586 4.257424,-5.90545 h 0.274672 c 0.125266,1.21896 -1.70615,3.42113 -0.274672,4.25742 -0.876609,0.92737 -1.035919,2.36047 0.686681,2.13506 2.268017,-0.29676 2.938102,-1.94777 4.681725,-3.00126 0.811867,-0.49053 1.761246,0.20669 2.509567,-0.67385 0.832903,-0.98008 0.274341,-3.33514 1.598332,-3.54987 1.968701,-0.31929 4.003966,2.57691 5.630681,3.39016 1.607628,0.80372 3.139777,0.12152 4.806768,0.36772 1.724884,0.25477 2.824308,1.33204 4.669432,1.33204 0.161582,1.0378 1.27096,1.34496 2.060044,1.87756 1.580347,1.06667 2.834261,3.14849 4.669432,3.72291 0.755886,0.2366 1.885246,0.38765 2.334716,-0.38169 0.354523,0.25961 0.689414,0.7328 1.110978,0.87245 1.132731,0.37522 1.550766,-0.27533 2.567745,0.91345 0.813632,0.95108 0.506294,1.96868 0.936241,3.00603 0.281361,0.67885 1.265573,0.75131 1.671664,1.39413 1.105647,1.7502 0.789432,4.44915 3.464245,3.83948 -0.0069,0.82886 -0.207027,1.64229 -0.0976,2.47205 0.261152,1.98021 1.838893,2.1256 2.831395,0.54935 0.693094,-1.10074 0.80649,-3.27771 0.497307,-4.52457 -0.135056,-0.54465 -0.746631,-0.71399 -1.171063,-0.98159 -1.00148,-0.63142 -2.32941,-1.1754 -3.003065,-2.19007 -1.232505,-1.85642 -1.85989,-4.21122 -2.94531,-6.17473 -0.700689,-1.26753 -1.872439,-2.4543 -2.835637,-3.53153 -0.760915,-0.85099 -0.873884,-2.46721 -2.340223,-2.35698 -1.90124,0.14292 -2.34646,1.97541 -3.570742,3.00445 -0.618935,-1.43414 -1.925692,-2.19993 -2.805435,-3.43341 -0.29676,-0.41608 -0.23971,-1.23187 -0.671626,-1.50486 -1.047721,-0.66224 -1.827861,0.60451 -2.698191,-0.96729 -1.162932,-2.10025 -1.226814,-4.94285 -1.390534,-7.27872 -0.351199,-5.0108 -0.339669,-10.0826 -0.119637,-15.10699 0.242023,-5.52654 0.315599,-11.09841 0.693567,-16.61768 0.126079,-1.84109 0.770681,-5.51059 -0.425043,-7.08946 -0.85849,-1.13357 -4.020266,-3.3938 -5.492708,-3.37608 -1.118941,0.0135 -2.130736,0.89183 -3.296069,0.66688 -0.604555,-0.1167 -0.954455,-0.62932 -1.510699,-0.8308 -0.88165,-0.31934 -1.954631,-0.0182 -2.884061,-0.27892 -1.915993,-0.53752 -3.64586,-1.65754 -5.630786,-1.94242 -1.353772,-0.19429 -2.639485,0.34208 -3.982751,0.3532 -0.123811,-0.5954 -0.381434,-0.80622 -0.961353,-0.96135 1.112676,-2.09864 -3.506018,-2.29973 -4.669432,-1.64804 -0.169797,-1.93008 -2.055463,-1.67121 -3.433406,-2.42426 -0.539207,-0.29468 -1.085859,-0.96479 -1.771065,-0.82211 -0.524529,0.10922 -0.806347,0.7977 -1.099115,1.18633 -0.582074,0.77267 -1.256397,1.51569 -2.073925,2.0452 -1.139338,0.73794 -1.839142,-0.20722 -2.884061,0.10513 -1.443944,0.43163 -2.248049,2.62234 -3.570742,3.40097 -0.798724,0.47019 -1.563472,-0.18077 -2.23023,0.63688 -0.844206,1.03526 -1.653888,2.42664 -2.062058,3.70003 -0.351201,1.09566 -0.20623,2.11293 -1.089257,2.99596 -1.520178,1.52017 -4.836534,0.36671 -5.801397,2.36068 -1.725581,3.56604 2.071463,5.01717 4.152832,7.0832 0.664214,0.65932 0.558758,1.49995 1.018682,2.24962 0.761502,1.24124 2.903408,1.62077 4.226057,1.37888 m 12.909606,-24.85786 v 0.13733 c -1.150117,0.55472 -0.731355,2.06981 0.549345,2.03811 1.14499,-0.0283 1.00609,-1.07202 1.785371,-1.48876 0.0673,0.82291 0.415056,2.07179 1.510699,1.87312 0.509659,-0.0924 0.847102,-0.54706 1.373362,-0.61474 0.54629,-0.0703 1.118988,0.14318 1.648035,0.25232 0.01263,1.39545 1.567326,2.84776 3.021397,2.79971 1.169689,-0.0387 2.229183,-0.59415 3.433511,-0.38033 1.491105,0.26474 2.844455,1.04257 4.257319,1.55595 1.192685,0.43338 2.40636,0.29304 3.570742,0.62681 0.635172,0.18207 1.128229,0.66697 1.785371,0.81862 1.318995,0.30437 2.321916,-0.49325 3.570742,-0.54384 1.188184,-0.0481 3.719701,1.84147 4.430154,2.74768 0.472638,0.60286 0.37542,2.06985 0.376615,2.81295 0.004,2.47026 -0.273726,4.94768 -0.274673,7.41616 -0.0033,8.56335 -0.651945,17.10207 -0.549873,25.68188 0.05036,4.23296 0.183448,9.20412 3.708607,11.94825 -0.521172,0.27318 -1.847619,0.78608 -2.331431,0.1918 -0.37956,-0.46622 -0.173954,-1.29277 -0.96676,-1.45103 -0.47343,-0.0945 -0.903327,0.36423 -1.371242,0.41 -1.195195,0.11688 -3.399382,0.25344 -4.532095,-0.12654 -2.344712,-0.78654 -3.932231,-3.80605 -6.59214,-3.75046 -0.927539,0.0194 -2.275562,0.53856 -2.438669,1.56759 -0.12501,0.7887 0.362096,1.71221 -0.307314,2.38899 -0.547739,0.55375 -1.4076,-0.23218 -2.035458,0.0922 -1.144063,0.59105 -1.625067,2.1264 -2.909388,2.7375 0.809097,-1.24561 0.541985,-1.85318 -0.961354,-1.5107 0.255682,-1.07896 0.639254,-3.61842 1.785476,-4.03764 0.792936,-0.29002 3.061427,1.02047 3.558768,0.0345 0.288441,-0.57179 -0.440182,-0.90544 -0.812253,-1.15304 -0.902459,-0.60056 -1.940339,-1.93522 -3.158628,-1.44766 -2.913601,1.16605 -3.547909,3.94038 -5.112808,6.19116 -0.504231,0.72524 -1.404037,0.73489 -1.874811,1.38841 -0.686907,0.95355 -1.969707,3.22694 0.258143,3.14432 -0.290985,0.8576 -1.191202,2.10276 -1.946551,2.62052 -0.802374,0.54998 -2.147987,1.143 -2.310872,2.18625 l -1.827017,1.84788 -3.920653,2.5613 -0.39569,1.41341 -2.783496,0.90688 c 0.208542,-1.87254 2.217539,-2.00973 3.402144,-2.98007 0.437076,-0.35801 0.497844,-0.96407 0.807381,-1.41469 0.427396,-0.62218 1.080165,-1.10274 1.421472,-1.78537 0.485267,-0.97054 0.386173,-2.25882 0.735322,-3.29607 0.272391,-0.80921 1.283292,-2.04584 0.08584,-2.59963 -0.727899,-0.33665 -1.553662,0.56774 -2.194731,0.81426 -0.448983,-1.2806 -1.286221,-1.58176 -2.060043,-0.27467 -0.677471,-0.50586 -2.14401,-1.37774 -3.021397,-1.19512 -0.714995,0.14882 -1.259543,0.77744 -1.922708,1.05778 -0.862905,-1.94959 0.649678,-3.72326 -1.444467,-5.41683 -0.73866,-0.59736 -2.086838,0.98509 -3.087629,0.85337 -1.271473,-0.16734 -1.746046,-1.75726 -2.884061,-2.30335 0.414446,-1.24447 3.788759,1.26143 3.742201,-0.68911 -0.01581,-0.66244 -0.869982,-1.10959 -1.407485,-1.2887 -1.33153,-0.4437 -2.926356,-0.84278 -3.743366,-2.14429 -0.471648,-0.75134 0.175709,-1.13349 0.446237,-1.78537 0.640343,-1.54299 1.27308,-3.29875 2.049552,-4.79872 0.796226,-1.53811 1.938031,0.30202 3.030935,0.0149 0.822202,-0.21596 0.996241,-1.13515 1.655983,-1.56707 0.633539,-0.41478 1.500717,-0.19097 2.19134,-0.52085 2.399095,-1.14591 1.066288,-3.28048 0.54945,-5.07455 1.102068,-0.81889 1.159401,-2.578 -0.549345,-2.66173 -1.157299,-0.0567 -2.337287,0.85275 -3.158733,1.56304 H 23.87023 c -1.655915,-1.18639 -4.458111,0.89959 -6.316831,0.0477 -0.602547,-0.27615 -1.343976,-1.26389 -1.185161,-1.97039 0.117009,-0.52051 0.66953,-0.90589 0.423877,-1.49235 -0.304409,-0.72675 -2.366872,-1.01152 -3.084767,-1.25437 0.291781,-0.60407 1.964117,-1.87567 2.609494,-2.11451 1.179113,-0.43639 2.33092,0.41053 2.059938,-1.45623 l 2.472052,-0.96136 c -0.643939,2.70597 1.63802,2.72426 3.570742,2.74726 0.460199,0.005 1.058396,0.26142 1.496288,0.14348 0.350004,-0.0943 1.602676,-1.24114 1.833056,-1.55553 0.209152,-0.2854 0.184763,-0.62465 0,-0.91525 -0.482102,-0.75823 -0.97994,-0.79398 -1.136733,-1.79332 -0.11295,-0.71991 0.462564,-1.40273 -0.171352,-2.01681 -0.914813,-0.88618 -2.7725,0.019 -3.912599,-0.78024 -0.649294,-0.4552 -0.53537,-1.63243 -1.058528,-2.28386 -1.15749,-1.4413 -3.094145,-2.78681 -4.603625,-3.84594 0.07485,-0.59223 -0.04902,-1.79228 0.376616,-2.23479 0.478882,-0.49786 1.596964,-0.40466 2.232773,-0.49404 1.171315,-0.16464 2.290168,-0.54835 3.145913,-1.40409 1.713708,-1.7137 1.225676,-4.41404 2.909702,-6.26098 0.476773,-0.5229 1.551336,-0.42907 2.184559,-0.82794 1.13315,-0.71376 2.000504,-2.53094 3.197942,-2.97286 0.905314,-0.33411 1.860699,0.15362 2.844853,-0.33688 1.667737,-0.83117 2.549488,-3.25674 4.394759,-2.36078 M 190.4591,151.61247 c -1.74465,0.57818 -4.46744,2.34962 -3.75576,4.57078 0.3136,0.97875 1.30044,0.99763 2.09543,1.35472 1.54462,0.69378 2.91132,2.19774 4.81906,1.4951 1.90294,-0.70086 3.33917,-4.21081 2.19812,-6.00453 -0.7892,-1.24062 -3.99455,-1.86754 -5.35685,-1.41607 m 0.41201,1.4968 c 0.7358,-0.23135 3.1422,-0.0314 3.61981,0.6353 0.69664,0.9724 -0.39535,3.49616 -1.42243,3.86842 -1.38864,0.50327 -2.48213,-0.84387 -3.57128,-1.37241 -0.40252,-0.19534 -1.21963,-0.22173 -1.31476,-0.76182 -0.20739,-1.17747 1.8123,-2.09392 2.68866,-2.36949 m -8.78899,1.5299 c -1.17899,0.45573 -3.02723,2.77222 -3.29258,4.01814 -0.3047,1.43061 1.36698,2.372 2.60282,1.97039 0.64299,-0.20896 2.51581,-1.72911 2.68771,-2.3878 0.37627,-1.44179 0.41333,-4.5328 -1.99795,-3.60073 m 0.68615,1.27141 -0.28336,1.87067 -1.63935,1.56274 -0.68668,-0.27467 2.60939,-3.15874 m -155.601971,0.96136 -0.961353,0.41201 0.961353,-0.41201 m 187.875981,3.66092 c -0.97148,0.2914 -1.41074,1.37762 -2.33471,1.73058 -0.69315,0.2648 -1.85511,-0.21673 -2.3096,0.54532 -0.60652,1.01695 0.75239,2.9153 1.33765,3.67672 0.43752,0.56919 0.74908,1.56826 1.39688,1.91878 0.80851,0.43749 1.61065,-0.38078 2.41992,-0.34822 1.66374,0.067 2.73157,1.22798 4.55635,0.48281 0.90137,-0.36809 0.44996,-1.9042 0.13586,-2.56351 -0.46508,-0.97625 -1.16731,-1.35628 -1.77997,-2.15277 -0.66355,-0.86264 -1.10085,-1.98884 -1.83178,-2.80119 -0.39524,-0.43927 -1.01517,-0.66111 -1.5906,-0.48852 m 0.54935,1.42052 3.29607,5.08144 c -1.46488,0.38336 -2.0636,-0.5104 -3.40999,-0.78512 -0.60493,-0.12344 -0.92916,0.57003 -1.52183,0.45875 -0.88445,-0.16611 -1.81943,-2.17412 -1.93499,-2.9697 1.67271,0.26512 2.24821,-1.16863 3.57074,-1.78537 m 18.9524,10.30022 c -0.39504,1.60337 -0.16748,3.31972 1.37336,4.25668 0.52938,0.3219 1.39293,0.21739 1.82618,0.63285 0.84586,0.81109 0.28865,2.35993 1.34697,3.11337 1.25715,0.895 2.67129,-0.32869 3.831,-0.72175 1.42314,-0.48234 2.68879,0.11628 3.69366,-1.37623 1.44532,-2.14667 -0.63654,-2.19205 -1.86908,-3.21711 -0.85461,-0.71075 -2.09303,-1.94502 -3.19848,-2.21817 -0.79642,-0.19678 -1.75109,0.62948 -2.42679,0.32512 -0.40347,-0.18173 -0.6086,-0.72291 -0.91347,-1.02429 -0.86581,-0.85592 -2.07798,-1.0918 -3.11401,-0.45715 0.122,-0.31679 0.25994,-0.63109 0.34133,-0.96156 0.52578,-2.13461 -1.32027,-1.65816 -2.67403,-1.81092 -0.60024,-0.0677 -0.91743,-0.66033 -1.51325,-0.7668 -0.8138,-0.14542 -1.42565,0.38059 -2.19684,0.42463 -0.96633,0.0552 -2.25906,-1.03991 -3.11508,-0.24808 -0.35357,0.32705 -0.3476,0.89041 -0.56406,1.30268 -0.17239,0.32832 -0.39344,0.62915 -0.55974,0.96136 -1.32287,2.64261 2.60312,1.19726 3.68954,1.415 2.00971,0.40279 4.0546,1.50513 6.04279,0.37037 m -7.41616,-2.74673 3.57075,0.0686 1.37336,0.62542 1.9227,-0.007 c -0.55757,2.29556 -3.9353,0.32564 -5.35611,0.16331 -0.73434,-0.0839 -1.46895,0.19073 -2.19738,0.2487 l 0.68668,-1.09869 m 7.9655,2.06005 -0.13733,0.13733 0.13733,-0.13733 m -0.45779,0.50356 -0.0458,0.0916 0.0458,-0.0916 m 11.03269,4.85255 c -0.83591,1.59243 -2.3823,0.70209 -3.70808,1.37972 -0.47265,0.24157 -1.39179,1.09034 -1.96011,0.67439 -0.8178,-0.59855 -0.51832,-2.4374 -1.40029,-3.23059 -0.647,-0.58187 -1.58924,-0.13663 -2.23954,-0.77759 -0.43434,-0.42811 -1.05879,-2.10486 -0.0229,-2.24136 1.15475,-0.15217 1.49583,1.77749 2.60198,1.95429 0.8789,0.14046 1.73539,-0.82204 2.56964,-0.29078 1.44067,0.91741 2.55336,1.91702 4.1593,2.53192 m -15.38166,-4.04401 c -0.95626,0.10812 -2.06181,0.89004 -1.564,1.97803 0.222,0.48517 0.73123,0.6192 1.03415,1.0208 0.28751,0.38118 0.20568,0.90737 0.49436,1.28859 0.48766,0.64403 1.64521,0.65157 2.3702,0.55476 1.53969,-0.20564 2.18182,-1.84187 1.42306,-3.13088 -0.70954,-1.20534 -2.39212,-1.86567 -3.75777,-1.7113 m 1.09869,3.35733 -0.68668,-1.92271 c 1.63792,0.22165 3.20339,2.21966 0.68668,1.92271 m 5.35611,1.86262 c -1.58468,0.16896 -3.7281,3.7142 -1.09869,3.46912 0.72946,-0.068 2.19642,-0.25516 2.58469,-0.95192 0.55222,-0.99094 -0.30424,-2.6432 -1.486,-2.5172 m -163.018126,1.15878 c 1.112252,0.78349 2.21645,1.89377 2.746725,3.15873 -1.07988,-0.4813 -3.48329,-1.83402 -2.746725,-3.15873 m 163.018126,0.45779 c 0.1062,0 0.022,0.0684 -0.0458,0.0458 l 0.0458,-0.0458 m -155.18996,0.36622 0.137336,0.68668 c -0.924203,0.73262 -0.698107,1.72864 -0.412009,2.74673 l -1.510699,-1.09869 c 0.254488,-1.31229 0.511139,-1.81005 1.785372,-2.33472 m 1.373362,2.33472 1.908399,2.20331 2.761033,5.48752 c -1.362667,-0.63937 -1.121389,-1.81999 -1.771808,-3.0214 -0.823456,-1.52104 -3.258534,-2.611 -2.897624,-4.66943 m -5.081441,1.09869 1.373362,1.09869 c -0.606101,-0.0963 -1.388417,-0.39053 -1.373362,-1.09869 m 170.022269,0.22699 c -3.33107,1.0435 -0.0558,3.96538 -0.47368,5.67847 -0.41461,1.69977 -2.88602,1.90406 -3.16477,3.84541 -0.16232,1.13044 0.65796,1.52488 1.18602,2.34701 0.54101,0.84229 0.99766,2.32876 1.37589,3.28378 0.56324,1.4222 -0.33546,2.70013 -0.28887,4.12008 0.0544,1.65704 1.70466,2.73605 3.00805,3.3835 0.70652,0.35095 1.04893,0.91086 1.92811,0.64747 1.60134,-0.47975 2.42269,-2.51577 3.57074,-3.61356 0.82776,-0.79149 1.79444,-1.70197 2.88406,-2.10517 1.70128,-0.62957 3.23293,-0.5043 4.80677,-1.64794 0.84625,-0.61494 2.13262,-1.3972 2.17693,-2.56922 0.0397,-1.05094 -1.37969,-1.34947 -1.84492,-2.19801 -0.26842,-0.48958 -0.27473,-1.1479 -0.61887,-1.58849 -0.23088,-0.29558 -0.74797,-0.29684 -0.89384,-0.65193 -0.15561,-0.3788 0.11861,-0.78673 -0.082,-1.18685 -0.248,-0.49455 -0.80405,-0.65842 -1.1965,-1.00501 -0.80423,-0.71029 -1.2542,-1.67721 -2.2102,-2.24878 -1.70351,-1.01846 -3.74203,-1.06644 -5.49345,-1.94496 -1.51925,-0.76207 -2.65489,-3.17689 -4.66944,-2.5458 m 12.08559,8.28786 c -0.11561,1.39834 0.62601,1.55566 1.33521,2.53998 0.71154,0.98757 0.91297,1.87985 1.96086,2.67879 -1.65502,2.15758 -3.86979,1.81364 -6.04279,2.78975 -1.66904,0.74973 -3.17615,2.1643 -4.36933,3.52772 -0.43348,0.49533 -0.89221,1.83764 -1.674,1.80371 -0.36514,-0.0159 -0.74761,-0.29315 -1.09816,-0.39761 -3.52105,-1.04916 -0.85236,-4.35455 -1.96721,-6.76221 -0.48278,-1.0426 -0.81805,-2.32201 -1.3793,-3.29554 -0.27036,-0.46897 -1.04047,-0.91843 -0.96834,-1.51324 0.16704,-1.37776 2.56806,-2.00399 3.06389,-3.4314 0.47059,-1.35474 -0.56096,-2.35238 -0.92989,-3.57074 -0.14141,-0.467 -0.0518,-1.14178 0.53886,-1.23688 1.03588,-0.16676 2.20628,1.68699 3.01536,2.18923 1.72394,1.07014 3.86208,1.071 5.63078,2.04149 1.1948,0.6556 1.68157,2.01271 2.88406,2.63695 m -171.12096,0.412 c 1.692344,0.83815 3.120426,1.48871 3.375124,3.43341 0.100219,0.76521 0.06955,1.60243 -0.628399,2.06004 0.0052,-1.88892 0.595934,-4.03274 -2.060044,-3.84541 L 88.8303,192.44236 m -61.114626,3.29607 -0.961353,-0.54934 0.961353,0.54934 m -6.180131,3.0214 v 0.13734 l -0.961353,0.41201 z"
    />
  </symbol>
</svg>
