<svg xmlns="http://www.w3.org/2000/svg">
  <symbol viewBox="0 0 79.375 185.20833" id='space'>
    <path
      style="fill:#0d0d0d;stroke:none;stroke-width:2.49907"
      d="m 32.489442,21.758462 v 0.205323 c -5.095437,1.051155 -10.314597,1.309901 -15.398513,2.394213 -1.73904,0.370906 -4.749306,0.761995 -4.311587,3.149253 -1.939813,0.0835 -4.1772451,0.625777 -5.9540904,1.411846 -0.7398182,0.327293 -1.7403288,0.884336 -1.5414373,1.853997 0.1783342,0.869425 1.227451,1.150691 1.9520643,1.385553 2.0616569,0.668248 4.4030444,1.091405 6.5700324,1.097384 v 0.205324 c -2.957072,1.237657 -3.649383,3.41509 -0.205323,4.511033 3.503734,1.114923 7.622553,1.64594 11.292244,1.648371 0.391486,9.093233 4.314052,17.979533 4.714128,27.101386 0.304883,6.95142 0.0081,13.983162 0.0081,20.941977 0,4.794505 0.421055,9.805841 -0.03486,14.577268 -0.563686,5.8993 -1.844132,11.80055 -2.752404,17.65697 -1.549915,9.99358 -3.084466,19.99054 -4.688306,29.97577 -1.394971,8.68482 -2.627159,17.39832 -4.072686,26.07482 -0.341523,2.04988 -0.623174,4.10884 -0.959395,6.15938 -0.101463,0.61874 -0.485834,1.76969 0.254104,2.13458 0.954606,0.47073 5.62899,0.5297 6.270776,-0.35203 0.890241,-1.22306 1.062291,-3.79822 1.340398,-5.2729 0.760277,-4.03125 1.399043,-8.0856 2.178604,-12.11348 0.243035,-1.25573 0.201501,-4.09832 1.147447,-5.00893 0.940541,-0.90542 4.17216,-0.32921 5.422588,-0.32921 v 15.80916 c 0,1.85419 -0.619474,5.04237 0.123872,6.74491 0.391974,0.89777 1.757563,0.64637 2.54519,0.64637 h 6.980662 c 0.722744,0 1.987302,0.22966 2.458059,-0.47592 0.861667,-1.2913 0.211022,-4.76643 0.211022,-6.29943 v -16.42509 h 5.543465 c 0.524473,4.12833 1.494769,8.21877 2.20712,12.31881 0.565785,3.25645 0.877394,6.9774 2.157852,10.04832 0.460771,1.10508 5.560002,1.46745 6.304838,0.50409 0.402782,-0.52094 0.06207,-1.5486 -0.02024,-2.13456 -0.279612,-1.98938 -0.651242,-3.96645 -0.944038,-5.95407 -1.180789,-8.01575 -2.645978,-15.99544 -3.751407,-24.02171 -2.279683,-16.55232 -6.157983,-33.05868 -7.767059,-49.68585 -0.643082,-6.645222 -0.03486,-13.647141 -0.03486,-20.326046 0,-7.20086 -0.209923,-14.237849 0.975872,-21.352606 0.868328,-5.209956 1.8073,-10.424612 2.843023,-15.603826 0.244284,-1.221595 0.26277,-4.400945 1.376199,-5.127288 0.76007,-0.495828 2.140817,-0.366919 3.017446,-0.474636 2.869617,-0.35262 7.5107,-0.324951 9.808157,-2.331007 1.800605,-1.572219 -0.954612,-3.041169 -2.211555,-3.564626 v -0.205324 c 2.099187,-0.0057 4.359705,-0.408608 6.36472,-1.031808 0.717644,-0.223066 1.832332,-0.472669 2.130602,-1.265302 0.353148,-0.938434 -0.589836,-1.599373 -1.309512,-1.947307 -1.795154,-0.867883 -4.171872,-1.418825 -6.159243,-1.504363 0.418986,-2.285254 -2.390152,-2.78326 -4.106271,-3.119941 -5.173638,-1.015001 -10.438684,-1.357983 -15.603829,-2.423525 1.041971,-0.592417 2.179847,-0.904423 3.285016,-1.356091 2.100481,-0.858432 3.419963,-2.624777 1.026412,-4.194342 C 49.30255,15.186925 46.764157,14.62478 44.602964,14.161872 43.85188,14.000982 42.410507,13.940505 41.939592,13.251745 41.463296,12.555268 41.765017,11.268148 41.710113,10.466233 41.550647,8.138759 41.484821,5.7936429 41.09584,3.4855701 40.975198,2.7697315 40.774318,0.49260983 39.662762,0.61878873 38.536187,0.74665863 38.363627,2.8488513 38.221771,3.6908833 37.846098,5.9207969 37.79462,8.2159781 37.640523,10.466233 c -0.05491,0.801953 0.246809,2.089022 -0.22939,2.785512 -0.496548,0.726245 -2.076198,0.78093 -2.868687,0.953223 -2.12863,0.46278 -4.783954,1.04386 -6.56908,2.346208 -1.545255,1.127341 -1.448612,2.651817 0.205148,3.584439 0.455587,0.256929 0.949775,0.446417 1.436404,0.635099 0.939883,0.364424 1.902628,0.72251 2.874389,0.987758 M 39.880731,2.0483762 c 0.232761,2.949252 0.683576,5.8692547 0.81317,8.8284798 0.03924,0.895767 -0.34721,2.64424 0.337282,3.340931 0.57292,0.583133 1.787335,0.60901 2.54519,0.765979 1.85731,0.384688 6.825129,1.084513 7.784169,2.938224 0.804569,1.555138 -3.679581,2.339652 -4.498043,2.827499 -0.785871,0.46842 -1.264645,1.228484 -0.395734,1.891227 1.306335,0.99638 3.553242,1.003086 5.116837,1.226491 4.264341,0.609291 10.518884,0.333374 14.166634,2.818792 v 0.205322 l -0.291493,1.234578 2.549941,0.614037 5.132836,1.641716 v 0.205325 c -2.342497,1.318633 -5.387513,1.448723 -8.007225,1.790002 -0.443235,0.05774 -2.494451,0.06223 -2.334175,0.852305 0.108321,0.534099 1.093872,0.704426 1.51292,0.848647 1.206418,0.415229 2.490766,0.855153 3.079702,2.052513 -2.771431,1.611492 -6.315471,1.824397 -9.444422,2.199825 -1.076378,0.129155 -3.3916,-0.137221 -4.135581,0.763597 -0.602477,0.729475 -0.579055,2.096456 -0.751549,2.990668 -0.461821,2.394115 -0.926487,4.786547 -1.359406,7.185973 -1.017625,5.640082 -2.411991,11.329586 -2.957715,17.041023 -0.34061,3.564677 -0.03486,7.300143 -0.03486,10.881615 0,8.295599 -0.763848,17.000259 0.03486,25.253565 1.412857,14.59961 4.579135,29.23384 6.827619,43.73178 1.220892,7.87212 2.474765,15.73904 3.695644,23.61106 0.684313,4.41234 1.953686,9.08368 1.966006,13.55068 h -4.311585 c -1.017513,-4.92966 -2.097935,-9.82238 -2.992573,-14.78257 -0.414103,-2.29594 -0.417914,-5.48436 -1.424518,-7.58455 -0.700121,-1.46074 -4.080206,-0.84029 -5.437959,-0.83313 -0.605972,0.003 -1.448725,-0.072 -1.842121,0.4995 -0.679373,0.98708 -0.211023,3.46604 -0.211023,4.63318 v 12.3188 c 0,1.10469 0.584307,4.81425 -0.329195,5.53777 -0.603613,0.47806 -2.02553,0.21092 -2.750506,0.21092 h -7.185973 v -17.04101 c 0,-1.26901 0.617607,-4.87486 -0.329199,-5.8017 -0.876209,-0.85774 -6.557577,-0.77834 -7.178532,0.30512 -1.004115,1.75201 -0.938019,4.75093 -1.320751,6.72842 -1.021105,5.27587 -1.994271,10.54753 -3.079703,15.80917 h -4.722213 c 0.01222,-4.46702 1.281695,-9.13835 1.966005,-13.5507 1.220874,-7.87201 2.474752,-15.73894 3.695643,-23.61106 2.248187,-14.496 5.415021,-29.13479 6.82762,-43.73179 0.798709,-8.253296 0.03486,-16.957943 0.03486,-25.253553 0,-3.581461 0.305752,-7.31694 -0.03486,-10.881617 -0.545727,-5.711435 -1.940087,-11.400942 -2.957715,-17.041022 -0.432927,-2.39944 -0.897582,-4.791849 -1.359404,-7.185973 -0.172486,-0.894213 -0.149064,-2.261183 -0.751551,-2.99067 -0.743991,-0.900814 -3.059193,-0.634448 -4.13558,-0.763597 -3.128963,-0.375427 -6.672991,-0.588345 -9.444424,-2.199825 0.588283,-1.196055 1.877153,-1.616734 3.079704,-2.037133 0.436167,-0.152478 1.402766,-0.29 1.512922,-0.853737 0.157462,-0.805829 -1.878205,-0.803196 -2.334176,-0.862595 C 11.498507,32.022793 8.8234034,31.642503 6.2093028,30.79219 v -0.410626 l 5.1328392,-1.641719 2.549941,-0.614037 -0.291494,-1.234576 v -0.205325 c 3.650131,-2.487006 9.900263,-2.204013 14.166635,-2.818787 1.541895,-0.22217 4.117838,-0.20565 5.295696,-1.373498 0.681329,-0.67554 0.08482,-1.351178 -0.574593,-1.744225 -0.875352,-0.521756 -4.954003,-1.156418 -4.566806,-2.656869 0.21852,-0.846744 1.603462,-1.232045 2.309465,-1.505791 1.850348,-0.717447 3.805193,-1.249527 5.748777,-1.644577 0.735267,-0.149444 1.994259,-0.183732 2.458064,-0.868623 0.497456,-0.734598 0.182057,-2.145453 0.219094,-2.991457 C 38.761189,8.7010238 38.324446,3.9495282 39.88072,2.0482878 M 29.272693,39.218755 c -0.981466,0.643934 0.229438,4.149102 0.424412,5.124115 1.05168,5.259028 1.962036,10.54659 2.997486,15.809142 0.282122,1.433861 0.500339,2.88173 0.808734,4.310631 0.0782,0.362296 0.340804,1.344851 0.924394,0.991407 0.489067,-0.296194 0.31995,-1.341056 0.320164,-1.811708 v -4.927525 -13.55069 c 0,-1.461422 0.524719,-4.160084 -0.123885,-5.478203 -0.351235,-0.7138 -4.711497,-0.886944 -5.351305,-0.467169 m 15.94618,26.47672 2.053134,-9.033795 3.490331,-17.246334 c -0.998562,-0.401743 -5.245362,-0.73643 -5.91734,0.270578 -0.744309,1.115412 -0.242059,3.763349 -0.242059,5.067574 v 13.140065 c 0,1.782595 -1.114032,6.847954 0.615941,7.801912 M 33.721324,40.236678 V 59.330836 H 33.516001 L 30.025669,40.236678 h 3.695645 m 15.809142,0 -3.695641,18.683532 h -0.205327 l 0.205327,-18.683532 h 3.695651 M 34.131952,103.26793 c -0.72725,1.51088 -0.663799,3.4803 -0.879081,5.13284 -0.489856,3.76027 -0.96663,7.52427 -1.389668,11.29224 -0.430886,3.83791 -1.006299,7.6596 -1.437195,11.49756 -0.376971,3.35765 -0.851749,6.70546 -1.253424,10.06036 -0.148746,1.24237 -0.654674,2.83494 -0.460213,4.07585 0.161315,1.02951 5.270345,1.05647 5.706321,0.17046 0.390702,-0.79399 0.105664,-2.1481 0.126902,-3.01443 0.04866,-1.98579 0.202304,-3.95673 0.202304,-5.95411 v -21.76321 c 0,-2.81526 0.205321,-5.61269 0.205321,-8.41786 0,-1.12386 0.292896,-2.46534 -0.821251,-3.0797 m 11.292242,0 c -1.188353,0.4777 -0.821254,1.99237 -0.821254,3.0797 v 8.62316 21.76325 6.1594 c 0,0.74975 -0.215196,1.9147 0.123871,2.6038 0.437,0.88809 5.539868,0.86224 5.730084,-0.17046 0.255107,-1.38501 -0.316975,-3.29623 -0.483974,-4.69179 -0.37651,-3.14637 -0.755169,-6.29385 -1.092471,-9.44442 -0.41082,-3.83727 -0.958001,-7.66024 -1.369073,-11.49756 -0.381566,-3.56189 -0.808447,-7.11926 -1.234099,-10.6763 -0.224166,-1.87334 -0.189156,-3.97594 -0.853097,-5.74878 m 0.410628,10.06036 c 0.02908,10.55579 3.461245,21.0597 3.490329,31.61827 h -3.695642 v -22.17385 c 0,-2.66729 -0.822636,-6.99468 0.205323,-9.44442 m -12.113499,0.61595 -0.205323,31.00232 h -3.695644 c 0.05497,-6.64228 1.641976,-13.52291 2.431921,-20.1207 0.393584,-3.28731 0.184132,-7.84792 1.469036,-10.88162"/>
  </symbol>
</svg>


