<svg xmlns="http://www.w3.org/2000/svg">
	<symbol viewBox="0 0 210 297" id='ball'>
		<path
			d="m 308.99948,337.21235 v 0 m -44.8574,-164.02766 c -8.37448,17.99846 -26.52343,15.50247 -42.11008,9.656 12.28282,26.97351 -10.80957,52.14403 -39.10286,41.35722 -3.58069,10.33492 -8.54044,30.61754 -18.22096,36.65178 -7.25121,4.52001 -24.91514,8.77403 -27.41197,-1.46871 l -2.11738,0.0595 c -6.0637,16.48855 -22.54949,62.93162 -36.883016,26.51409 -1.39105,-3.53429 -2.18669,-6.86184 -2.93172,-10.56534 -1.46949,8.19471 8.119106,39.72846 -5.49096,42.70128 -5.282238,1.15382 -6.731626,-7.15628 -7.692755,-10.55618 L 71.044978,267.59436 C 56.819589,216.55966 51.833865,146.23354 19.407384,103.75664 7.1467804,87.696047 -5.7739706,66.221439 9.3308874,47.047533 20.817592,32.466482 42.162423,30.543593 56.817261,41.13397 70.414312,50.959915 76.129102,68.77805 89.946754,77.955889 144.86744,114.43483 208.08651,138.42333 264.14208,173.18469 m -198.795469,14.0461 -23.428088,-79.86685 -4.234736,0.11885 c 1.612265,21.8444 11.051501,64.94528 27.662824,79.74816 m 25.349103,-2.82934 C 81.484292,152.50978 76.867081,121.21793 48.033341,98.716675 41.648795,127.6941 66.035528,171.55046 90.695714,184.40164 M 128.33378,166.39478 C 116.21386,128.34856 93.165904,113.43255 64.675668,87.655147 l -2.117362,0.05925 c -10.908079,17.791733 20.006636,45.077943 29.246248,60.632373 14.427516,-1.04888 24.743166,11.13474 36.529226,18.0478 m 15.98973,-34.35252 C 134.87523,113.13146 91.332754,72.963362 68.791752,83.30173 l 0.05933,2.117381 c 25.080912,19.215669 45.937478,35.305499 75.472398,46.623039 z"
		/>
	</symbol>
	<symbol viewBox="0 0 210 297" id='left'>
		<path 
			d="m 108.99222,152.90974 c 1.20138,8.91415 4.821,17.84153 7.01667,26.57012 0.57477,2.28663 3.10338,7.42482 1.98273,9.61857 -1.1736,2.29755 -4.68984,4.20361 -6.67459,5.79198 -4.05537,3.24539 -8.03585,6.60084 -12.288575,9.59163 -2.56913,1.8068 -6.01667,3.46672 -7.99132,5.94318 -2.91614,3.65727 -0.82187,10.4118 4.00584,11.16356 4.03966,0.62886 7.557805,-2.48645 10.628015,-4.67532 6.42951,-4.58398 12.37588,-9.80722 18.59902,-14.65793 2.26234,-1.76332 5.09663,-5.06196 7.97097,-5.50512 0.69142,4.01444 2.73946,8.1764 4.25136,11.95644 0.4952,1.23843 1.93552,3.48891 1.54707,4.84096 -0.54933,1.91095 -3.13268,3.93713 -4.38688,5.45497 -3.65695,4.42567 -7.08072,9.06991 -10.11062,13.94935 -1.5859,2.55398 -3.08835,4.82218 -2.48018,7.97096 0.88122,4.5593 7.16863,6.77278 10.81722,4.05081 2.24261,-1.67306 3.59386,-4.75101 5.12258,-7.0399 2.768,-4.14454 5.79101,-8.14487 9.00248,-11.95656 2.19356,-2.60362 5.86418,-5.29874 6.8942,-8.63523 1.76257,-5.70978 -3.77563,-14.31978 -5.77531,-19.5955 -4.37636,-11.54545 -7.51275,-23.5738 -10.52221,-35.53747 -0.95865,-3.81133 -3.95091,-9.68973 -3.49015,-13.5822 0.21739,-1.83585 5.28283,-3.56652 6.76939,-4.49375 5.02144,-3.13227 15.26802,-9.50163 15.26802,-16.13294 0,-2.79673 -1.75993,-5.03005 -3.17055,-7.30682 -2.59609,-4.18984 -5.15471,-8.40745 -7.71243,-12.62071 -1.45746,-2.40086 -2.69936,-5.09461 -5.38165,-6.33832 -4.30289,-1.995118 -10.35465,1.7401 -9.85052,6.67044 0.47826,4.68209 5.02811,9.67756 7.39315,13.61712 0.65851,1.09778 2.8087,3.51433 2.54728,4.83609 -0.47932,2.42417 -6.38729,5.40191 -8.3928,6.54921 -10.22912,5.85189 -21.75068,6.96556 -32.880495,3.33796 -5.87594,-1.91526 -10.78096,-5.08654 -16.27419,-7.75473 -2.04019,-0.99153 -4.91624,0.008 -6.54277,-0.92789 -1.16257,-0.66809 -2.01135,-2.33321 -2.79873,-3.38359 -2.12503,-2.83456 -5.2874,-6.22216 -6.400658,-9.63162 -0.613992,-1.88124 0.830338,-4.30341 0.727468,-6.3103 C 66.106715,102.81235 63.822724,97.158877 60.25346,92.463005 55.699358,86.471467 45.007928,80.88513 38.280901,86.925977 c -8.549681,7.677752 -0.37646,21.599653 6.611499,26.876543 2.761854,2.08558 5.913203,3.83672 9.299518,4.64954 2.279013,0.54718 4.71783,-0.33086 6.642438,1.29439 3.376676,2.85154 9.130999,7.94562 10.747979,12.14469 1.02228,2.65482 -0.86002,5.04764 1.33829,7.72037 2.18441,2.65602 6.15484,4.23418 9.16981,5.74149 8.24529,4.12207 17.63452,7.15888 26.902215,7.55685 M 43.896031,86.916749 c 9.701621,-1.433513 17.156694,8.541815 19.351369,16.838551 1.136509,4.29619 1.421244,11.631 -4.405706,12.54977 -8.816492,1.38995 -18.286481,-7.82112 -20.8045,-15.53896 -1.710799,-5.243608 -0.741998,-12.873959 5.858837,-13.849361 m 67.089419,21.310461 c -15.777585,2.84465 -11.038015,27.2616 4.64974,24.64696 16.24618,-2.70775 11.5098,-27.56054 -4.64974,-24.64696 m -48.109387,7.77256 c 1.732229,0 3.537842,3.73055 1.244531,3.69545 -1.693438,-0.0212 -3.301817,-3.69545 -1.244531,-3.69545 z"
		/>
	</symbol>
	<symbol viewBox="0 0 210 297" id='right'>
		<path 
			d="m 56.550555,125.97662 v -0.54066 C 70.239103,112.54335 46.701576,91.730945 33.55475,105.59362 c -1.79975,1.89773 -3.084953,4.31982 -3.669515,6.86637 -2.12877,9.27355 4.516426,18.70823 14.230015,18.91494 3.361743,0.0715 7.320879,-2.69079 10.272645,-2.23943 2.295087,0.35095 4.404917,3.4087 5.947319,4.95109 3.655102,3.65511 9.646808,7.81767 12.009364,12.43532 1.395528,2.72755 -0.610245,5.69332 1.346654,8.65065 3.330496,5.03309 8.877654,9.2577 13.136591,13.51662 3.420353,3.42034 8.088577,10.36149 13.516637,10.12204 3.44933,-0.15203 5.84811,-2.99796 8.10998,-5.25605 5.0214,-5.01299 11.05026,-9.87539 15.13864,-15.67929 h 0.54065 l 14.59797,15.13863 15.13861,14.59797 -33.52122,33.52125 c -3.82961,3.82961 -10.54768,9.13894 -6.02616,15.03644 5.69828,7.43236 13.41953,-2.4252 17.38013,-6.38578 l 30.81793,-30.81793 c 2.13174,-2.13173 7.75762,-10.24263 10.81537,-10.24263 2.71031,0 6.33226,5.22298 8.1079,6.99863 2.83868,2.83868 8.46176,6.63788 9.11123,10.8133 1.043,6.70544 0.0774,14.29639 0.0801,21.08596 0.001,3.82519 0.0692,8.04501 3.79301,10.22424 3.82867,2.24055 9.04776,0.0687 10.0511,-4.27733 1.03691,-4.4913 0.2132,-9.99724 0.2132,-14.59756 0,-5.76474 1.07872,-12.75934 -0.2132,-18.38261 -1.2768,-5.55757 -8.88246,-10.71765 -12.76277,-14.59798 l -32.9806,-32.98058 -10.27264,-10.27266 c -1.11837,-1.1212 -3.22141,-2.63466 -3.4434,-4.32531 -0.37864,-2.88371 5.91435,-7.33696 7.76874,-9.19131 l 25.41127,-25.41129 c 3.95562,-3.957124 9.34692,-11.845205 1.08092,-15.058117 -7.59581,-2.952393 -17.01577,10.988341 -21.6262,15.598787 l -40.54991,40.54991 -11.35397,11.35398 c -1.30755,1.30736 -2.99811,3.723 -4.866,4.21352 -3.376217,0.88659 -10.701143,-8.99323 -12.975964,-11.24011 -2.005303,-1.98065 -4.201484,-4.22912 -7.028652,-4.95483 -2.049093,-0.52598 -4.050799,0.49848 -5.947318,-0.71965 -7.038875,-4.52103 -11.515699,-12.73905 -18.382628,-17.5762 M 41.952607,103.98705 c 16.359049,-2.87487 21.261893,21.76404 4.86599,24.51684 -15.420093,2.58896 -20.42962,-21.78176 -4.86599,-24.51684 m 69.205173,5.50928 c -17.911582,3.88486 -11.379166,31.10888 6.48799,27.0074 17.23338,-3.95598 10.76581,-30.74958 -6.48799,-27.0074 z"
		/>
	</symbol>
</svg>