<?xml version="1.0" encoding="UTF-8" standalone="no"?>
<!-- Created with Inkscape (http://www.inkscape.org/) -->

<svg
   width="210mm"
   height="297mm"
   viewBox="0 0 210 297"
   version="1.1"
   id="svg1"
   xml:space="preserve"
   xmlns="http://www.w3.org/2000/svg"
   xmlns:svg="http://www.w3.org/2000/svg"><defs
     id="defs1" /><g
     id="layer1"><path
       style="fill:#030303;stroke:none;stroke-width:2.04347"
       d="m 56.550555,125.97662 v -0.54066 C 70.239103,112.54335 46.701576,91.730945 33.55475,105.59362 c -1.79975,1.89773 -3.084953,4.31982 -3.669515,6.86637 -2.12877,9.27355 4.516426,18.70823 14.230015,18.91494 3.361743,0.0715 7.320879,-2.69079 10.272645,-2.23943 2.295087,0.35095 4.404917,3.4087 5.947319,4.95109 3.655102,3.65511 9.646808,7.81767 12.009364,12.43532 1.395528,2.72755 -0.610245,5.69332 1.346654,8.65065 3.330496,5.03309 8.877654,9.2577 13.136591,13.51662 3.420353,3.42034 8.088577,10.36149 13.516637,10.12204 3.44933,-0.15203 5.84811,-2.99796 8.10998,-5.25605 5.0214,-5.01299 11.05026,-9.87539 15.13864,-15.67929 h 0.54065 l 14.59797,15.13863 15.13861,14.59797 -33.52122,33.52125 c -3.82961,3.82961 -10.54768,9.13894 -6.02616,15.03644 5.69828,7.43236 13.41953,-2.4252 17.38013,-6.38578 l 30.81793,-30.81793 c 2.13174,-2.13173 7.75762,-10.24263 10.81537,-10.24263 2.71031,0 6.33226,5.22298 8.1079,6.99863 2.83868,2.83868 8.46176,6.63788 9.11123,10.8133 1.043,6.70544 0.0774,14.29639 0.0801,21.08596 0.001,3.82519 0.0692,8.04501 3.79301,10.22424 3.82867,2.24055 9.04776,0.0687 10.0511,-4.27733 1.03691,-4.4913 0.2132,-9.99724 0.2132,-14.59756 0,-5.76474 1.07872,-12.75934 -0.2132,-18.38261 -1.2768,-5.55757 -8.88246,-10.71765 -12.76277,-14.59798 l -32.9806,-32.98058 -10.27264,-10.27266 c -1.11837,-1.1212 -3.22141,-2.63466 -3.4434,-4.32531 -0.37864,-2.88371 5.91435,-7.33696 7.76874,-9.19131 l 25.41127,-25.41129 c 3.95562,-3.957124 9.34692,-11.845205 1.08092,-15.058117 -7.59581,-2.952393 -17.01577,10.988341 -21.6262,15.598787 l -40.54991,40.54991 -11.35397,11.35398 c -1.30755,1.30736 -2.99811,3.723 -4.866,4.21352 -3.376217,0.88659 -10.701143,-8.99323 -12.975964,-11.24011 -2.005303,-1.98065 -4.201484,-4.22912 -7.028652,-4.95483 -2.049093,-0.52598 -4.050799,0.49848 -5.947318,-0.71965 -7.038875,-4.52103 -11.515699,-12.73905 -18.382628,-17.5762 M 41.952607,103.98705 c 16.359049,-2.87487 21.261893,21.76404 4.86599,24.51684 -15.420093,2.58896 -20.42962,-21.78176 -4.86599,-24.51684 m 69.205173,5.50928 c -17.911582,3.88486 -11.379166,31.10888 6.48799,27.0074 17.23338,-3.95598 10.76581,-30.74958 -6.48799,-27.0074 z"
       id="path1" /></g></svg>
