<?xml version="1.0" encoding="UTF-8" standalone="no"?>
<!-- Created with Inkscape (http://www.inkscape.org/) -->

<svg
   width="210mm"
   height="297mm"
   viewBox="0 0 210 297"
   version="1.1"
   id="svg1"
   xml:space="preserve"
   xmlns="http://www.w3.org/2000/svg"
   xmlns:svg="http://www.w3.org/2000/svg"><defs
     id="defs1" /><g
     id="layer1"><path
       d="m 105.20859,50.24316 c -0.59889,-0.0105 -1.24181,0.04601 -1.93444,0.17987 -5.423165,1.04751 -8.059303,10.664695 -10.240762,15.027635 -4.292496,8.585045 -8.443912,17.232473 -12.735287,25.815229 -2.949624,5.899225 -5.524,11.729136 -10.754986,16.016906 -5.693421,4.66689 -12.616108,5.43994 -19.619595,6.44913 -9.641733,1.38935 -19.277345,2.81013 -28.912737,4.23645 -5.326178,0.78842 -15.2165324,0.18205 -18.0901515,5.65181 -3.47189479,6.60845 4.8451443,11.88156 8.7970095,15.83341 6.703409,6.70346 13.454822,13.39697 20.307661,19.94976 5.047143,4.82608 10.645187,9.25751 13.467423,15.84667 3.121237,7.28728 1.63344,14.19794 0.385681,21.68442 -1.530868,9.18507 -3.161735,18.35257 -4.701798,27.53598 -0.827116,4.93214 -4.437187,14.46548 -1.35441,18.93032 5.842808,8.46227 19.282062,-2.7281 25.590095,-5.93488 7.731628,-3.93043 15.354078,-8.07377 23.061744,-12.05206 7.27173,-3.75324 14.350393,-6.95843 22.717123,-4.72473 5.29838,1.41448 9.98529,4.41381 14.80011,6.95432 7.8984,4.16758 15.81421,8.30862 23.74981,12.40453 4.24197,2.18943 10.84225,7.68238 15.8328,6.5608 8.4859,-1.90706 5.35817,-11.32207 4.27689,-17.31941 -1.87859,-10.41947 -3.6065,-20.87706 -5.33675,-31.32218 -1.04337,-6.30495 -2.63933,-12.56771 -1.04117,-18.93091 2.53222,-10.08198 11.6864,-16.99843 18.96715,-23.78061 4.12876,-3.84605 7.81397,-8.18484 12.04663,-11.91806 4.71228,-4.15631 13.79954,-10.4496 13.40887,-17.30793 -0.40067,-7.0325 -9.65185,-6.81236 -14.78563,-7.5277 -9.53004,-1.32785 -19.03783,-2.80231 -28.56809,-4.13022 -6.02799,-0.83989 -12.60668,-1.2037 -18.24285,-3.63408 -9.18756,-3.96171 -13.13193,-12.72004 -17.13411,-21.193111 -2.79109,-5.909154 -5.84298,-11.708891 -8.76562,-17.55418 -2.39961,-4.799284 -4.65866,-9.657201 -7.05813,-14.456075 -1.90069,-3.80146 -3.94027,-7.214321 -8.13248,-7.291104 z"
       style="fill:#242020;stroke-width:4.06533"
       id="path2" /></g></svg>
