<svg xmlns="http://www.w3.org/2000/svg">
	<symbol viewBox="0 0 210 300" id="martini">
	    <path
	      d="M 156.86581 -126.54809 L 156.86605 -79.391268 L 110.60143 -39.500826 L 45.887256 16.298391 L 112.73737 28.257496 L 161.64012 37.005454 L 199.53497 73.561875 L 238.54207 132.01858 L 238.68673 131.90386 L 231.75552 149.15278 L 221.767 162.72914 L 215.51752 170.31829 L 216.38968 174.56535 L 221.73452 174.97038 L 236.48378 167.58654 L 250.62747 156.25803 L 275.8184 135.17426 C 281.32395 129.51975 290.42717 124.13818 292.33464 118.21077 C 296.34809 112.54263 304.71158 106.34226 304.37516 101.20609 L 301.03728 97.966664 L 288.02616 104.14697 L 269.76483 112.61701 L 259.51155 115.14623 L 259.37053 115.25647 L 207.94901 66.17685 L 178.9914 21.294815 L 177.45194 -27.542058 L 175.31633 -95.299988 L 162.13979 -83.938437 L 162.13948 -126.5479 L 156.86581 -126.54809 z M 58.225937 12.635218 L 114.66042 -35.61304 L 156.86575 -71.69569 L 156.86575 18.232522 L 162.13942 18.232714 L 162.13948 -76.204016 L 171.09525 -83.860906 L 170.95416 -26.709425 L 170.81268 30.442392 L 114.51934 21.53844 L 58.225937 12.635218 z "
	      transform="rotate(40.662538)" />
	</symbol>
	<symbol viewBox="0 0 210 300" id="irish">
   		<path
      	d="m 99.766432,49.658914 c -29.505072,1.7e-5 -53.423643,9.951153 -53.423665,22.226499 0.03727,0.409329 0.101746,0.81815 0.193326,1.225996 11.420343,18.723393 33.836407,19.086569 52.697276,20.408827 7.839871,0.140698 46.318481,-2.842115 53.765041,-20.755906 0.0778,-0.292416 0.14181,-0.585445 0.19171,-0.878917 -3e-5,-12.275348 -23.91861,-22.226483 -53.423688,-22.226499 z M 152.99841,72.76433 c -0.064,0.903251 -0.26045,1.804036 -0.58807,2.697339 l 0.5913,-2.704072 c -9.6e-4,0.0023 -0.001,0.0045 -0.003,0.0068 z m -0.58807,2.697339 C 148.20192,86.201711 125.922,94.094849 99.766432,94.111916 71.449531,94.087166 48.097987,84.874516 46.536093,73.111409 46.462803,72.991252 46.384414,72.879271 46.31203,72.757597 l 8.207079,40.342653 3.02366,20.37068 0.863903,21.16956 1.295854,13.18151 16.413356,11.98319 5.544179,1.30902 14.958951,3.45806 10.041658,-1.2806 15.28899,-2.3323 1.98504,-1.17587 13.94863,-9.16542 4.75147,-8.38824 0.86391,-9.18636 -1.29586,-22.36863 0.003,-0.0262 -0.0259,-0.34484 0.0111,-0.0531 -0.0111,-0.15557 0.25643,-1.14521 2.78989,-20.64296 z m -9.97371,53.488261 -0.0161,0.11812 0.0687,-0.35232 z m 0.0526,-0.23413 5.10415,-22.81444 c 1.87983,-2.37046 4.65152,-4.40368 9.92354,-5.6318 l 6.54076,-0.2087 2.4817,1.46014 c 3.43987,4.03237 3.23336,8.06451 3.38281,12.09688 1.20849,5.16613 0.30309,10.13681 -1.57896,15.01713 -1.30016,2.65006 -2.19766,5.15179 -4.9618,8.34336 -1.20885,1.94667 -2.65843,3.89309 -7.21778,5.83975 -1.48578,0.28223 -2.19156,0.74477 -7.21698,0.2087 -2.53741,0.28491 -4.3622,-0.96879 -6.00042,-2.62403 l 0.13588,1.79 1.57897,9.59401 12.63014,-1.04271 c 2.27661,-0.77806 4.14558,-1.132 8.79677,-4.38039 3.19465,-2.27377 5.57323,-5.00008 7.21779,-8.1339 2.02717,-2.54559 3.13019,-5.4328 3.60849,-8.5513 l 1.35329,-9.80348 c -0.28584,-3.64883 0.32286,-5.9736 -1.35329,-11.67948 -0.27385,-2.61707 -1.25207,-5.88522 -3.38362,-10.220128 -1.51867,-2.725331 -1.97335,-5.28666 -6.99131,-8.5513 -2.60031,-0.667658 -3.00396,-1.843386 -10.15005,-1.460132 -3.2724,0.376276 -4.87235,1.01054 -6.31505,1.668817 z m 0.45702,11.68699 -0.65602,-8.6493 0.56624,8.56178 c 0.0294,0.0302 0.0602,0.0576 0.0899,0.0876 z m -0.65602,-8.6493 -0.0769,-1.15793 -0.008,0.0531 z m -0.0769,-1.15793 0.20707,-1.52744 -0.22973,1.1826 z m -18.27867,49.18794 -2.46471,1.61944 -14.80932,1.88873 -10.020671,1.28056 -0.02097,4e-5 c -4.928656,-1.23723 -9.976787,-2.3242 -14.95894,-3.45806 l -5.755315,-1.33071 -16.21726,-11.99519 6.296127,10.34805 12.973917,9.6449 42.394362,0.65378 h 3.45237 l 7.57533,-7.00516 5.85075,-10.11541 z m 0.86957,8.65154 -0.0567,0.0524 -3.39574,-0.0524 H 79.960542 v 6.98346 c -12.173472,4.40265 -19.580784,12.11787 -19.610118,20.42527 -3.15e-4,13.33443 18.678616,24.14426 41.720526,24.14441 23.04223,1.2e-4 41.72166,-10.80979 41.72135,-24.14441 -8.8e-4,-8.12853 -7.0695,-15.71122 -18.80768,-20.17544 v -7.23329 z"
      	/>
    </symbol>
    <symbol viewBox="0 0 210 300" id="margarita">
  		<path
       	d="m 87.02067,252.94524 c -12.926951,-2.02092 -23.038623,-5.95061 -25.881313,-10.05822 -5.675138,-8.20041 6.834429,-15.22672 29.738067,-16.70308 2.961619,-0.19085 3.126789,-0.35418 4.622519,-4.56982 4.08542,-11.51452 1.49162,-51.00523 -3.899682,-59.37312 -1.071978,-1.6638 -3.714283,-4.24932 -5.871806,-5.74556 -4.420875,-3.06594 -9.675851,-9.03941 -12.641028,-14.3695 -3.167044,-5.69293 -4.702446,-11.60501 -5.219785,-20.09888 L 67.386185,114.12237 61.49584,112.3972 C 51.860848,109.57528 46.803371,106.58324 39.810411,99.568019 34.884509,94.626411 32.776273,91.7808 30.513495,87.019365 25.545027,76.564506 24.063461,61.594797 27.600236,57.583863 34.565508,49.684769 63.154393,45.321749 102.33556,46.178328 c 39.96322,0.87368 70.32145,6.770546 78.74459,15.295608 1.97301,1.996886 2.1495,2.681888 2.1495,8.342463 0,20.545851 -15.66237,39.342481 -36.80979,44.175961 l -5.60072,1.2801 -0.0111,5.27921 c -0.0332,15.09292 -7.31035,28.2862 -20.42581,37.03122 -2.99481,1.99685 -5.93151,4.61197 -6.52599,5.81135 -4.28249,8.64021 -6.74317,40.96066 -4.08504,53.65619 1.93077,9.2216 2.19646,9.51638 9.53002,10.57364 7.07268,1.01968 16.45677,3.70528 20.82111,5.95873 3.69756,1.90919 6.98036,5.89097 6.98036,8.46665 0,2.8016 -4.52543,6.93093 -9.38672,8.56513 -10.61437,3.56819 -35.4696,4.71088 -50.694822,2.33066 z m 33.83885,-1.17339 c 14.57513,-1.6449 23.88653,-5.45732 23.88653,-9.77998 0,-5.17985 -13.07645,-10.93582 -29.22345,-12.86359 -4.38512,-0.52353 -4.51049,-0.60792 -5.68449,-3.82602 -4.16892,-11.42785 -4.44588,-31.67332 -0.71919,-52.57338 1.71869,-9.6387 3.29311,-12.54039 8.70553,-16.04457 13.40327,-8.6777 20.63857,-20.93503 20.63857,-34.96384 0,-6.9233 0.83683,-9.00515 3.61972,-9.00515 2.79272,0 12.50674,-3.41905 17.19284,-6.05143 9.43007,-5.2972 18.56992,-17.816393 21.17582,-29.005316 1.87295,-8.041673 1.6145,-12.006511 -0.95231,-14.610025 -7.19691,-7.299811 -32.63038,-12.76348 -68.74648,-14.768295 -37.998733,-2.109296 -76.149154,3.181617 -81.798121,11.344223 -1.603129,2.316477 -1.621748,10.660945 -0.03782,16.955464 4.107477,16.323206 17.703547,29.889179 34.217942,34.142189 2.770332,0.71348 5.478743,1.87988 6.018692,2.59201 0.59392,0.78332 0.989308,3.82525 1.000923,7.70066 0.01044,3.5232 0.38548,8.01545 0.833162,9.98279 2.033691,8.93705 8.130399,17.54078 18.200024,25.6841 4.843641,3.91706 6.376041,7.14453 7.994071,16.83667 3.371967,20.19839 3.301247,40.77391 -0.17266,50.24811 l -1.39675,3.80925 -10.186038,1.3202 c -10.955119,1.4199 -17.850596,3.57963 -21.586293,6.76105 -3.02627,2.57724 -2.953535,3.86722 0.398458,7.06679 7.522551,7.18054 34.694653,11.52261 56.62134,9.04809 z m -32.989684,-4.38777 c -8.866001,-1.3949 -16.848069,-3.93025 -19.752186,-6.27392 -1.913943,-1.5446 -2.101498,-2.0091 -1.236952,-3.06343 1.400144,-1.70748 7.386999,-3.61085 15.603182,-4.96068 9.012979,-1.48071 9.641753,-1.45435 9.641753,0.40439 0,3.4424 1.51626,2.06824 4.14839,-3.75962 3.62789,-8.03256 5.276167,-16.40308 5.276167,-26.79425 0,-15.13012 -2.885567,-35.75584 -5.783007,-41.33603 -0.908,-1.74875 -1.65702,-3.53599 -1.6645,-3.97167 -0.0126,-0.74324 16.821287,-0.67985 17.583977,0.0663 0.17567,0.17169 -0.24591,1.65728 -0.93666,3.30117 -3.70082,8.80766 -6.48769,30.25477 -5.84058,44.94799 0.48461,11.00369 1.69508,16.27402 5.69919,24.81395 2.88601,6.15525 4.29304,7.44507 4.29304,3.93545 0,-1.89754 0.18298,-1.99195 2.94516,-1.51979 11.93827,2.04071 22.18698,5.95115 22.18698,8.46555 0,2.10695 -5.10818,4.26192 -13.69486,5.77742 -8.62016,1.52142 -28.699317,1.50433 -38.469094,-0.0327 z m 39.660594,-2.27935 c 2.77472,-0.58756 6.28134,-1.58265 7.79244,-2.21125 l 2.74746,-1.14297 -2.64764,-1.3947 c -2.35226,-1.23913 -17.51964,-5.55452 -17.70067,-5.03617 -0.64909,1.85869 -2.13818,3.43516 -3.42914,3.63041 -1.22715,0.18567 -2.16515,-0.68438 -3.82084,-3.5438 -2.66023,-4.59427 -6.56571,-15.5118 -6.56571,-18.35409 0,-3.02419 -0.73844,-1.77647 -2.06613,3.49118 -1.79781,7.13269 -6.552887,16.9684 -8.203427,16.9684 -2.224676,0 -3.867276,-0.88016 -3.867276,-2.07224 0,-0.60901 -0.675755,-1.10728 -1.501673,-1.10728 -2.878729,0 -13.201802,2.27093 -16.245169,3.57372 l -3.065713,1.31233 2.748837,1.49093 c 3.285952,1.78226 14.600602,4.52563 22.775984,5.52232 7.493497,0.91355 26.468617,0.2666 33.048667,-1.12679 z M 103.9245,182.81671 c 0.0201,-2.41446 3.4173,-19.67557 4.29245,-21.81233 0.50077,-1.22277 0.0607,-1.39234 -3.63756,-1.4019 -2.31401,-0.007 -5.000607,-0.22604 -5.970257,-0.48906 l -1.76297,-0.4782 1.49315,3.46988 c 1.56058,3.62654 3.996247,16.51376 3.996247,21.14423 0,1.59021 0.32092,2.4882 0.78539,2.19767 0.43195,-0.27021 0.79354,-1.45381 0.80355,-2.63029 z m -9.156307,-28.69672 c -3.208353,-0.81776 -6.174143,-3.00028 -10.632999,-7.82482 -6.644566,-7.18954 -9.287907,-14.50216 -9.287907,-25.69447 0,-10.27071 -1.011531,-11.6344 -10.514618,-14.17522 C 52.141806,103.16603 41.644615,94.810725 36.782795,84.497038 34.414918,79.473891 32.436798,72.540857 32.436798,69.264948 c 0,-1.498496 1.458743,-1.272572 10.995313,1.702828 18.806131,5.86751 56.844849,9.207108 85.993829,7.549763 20.89745,-1.188169 31.07128,-2.729986 45.09227,-6.833641 1.86979,-0.547257 1.8856,-0.505479 1.39475,3.688946 -0.77117,6.590122 -5.26051,15.279341 -10.65357,20.620296 -6.01284,5.95478 -11.79042,9.22879 -19.8622,11.25542 -4.75428,1.19371 -7.17337,2.26564 -8.85424,3.92342 -2.19038,2.16032 -2.3409,2.7347 -2.84429,10.85458 -0.34133,5.50585 -1.07238,9.93318 -2.04308,12.37328 -2.37105,5.96017 -7.78073,12.82198 -13.08439,16.59664 l -4.84762,3.45013 -8.2465,0.1505 c -4.53555,0.0827 -9.354557,-0.13179 -10.708877,-0.47712 z m 22.024367,-4.42875 c 2.39555,-1.60929 5.92969,-5.04545 7.85366,-7.63584 4.92703,-6.6337 6.80647,-12.19718 7.42481,-21.97864 0.48612,-7.68932 0.64628,-8.27214 2.9006,-10.55371 1.77156,-1.79299 3.89792,-2.77949 8.25615,-3.8304 8.29257,-1.99961 14.40471,-5.32891 20.12595,-10.96268 4.96728,-4.891323 9.02077,-11.922569 10.13805,-17.58561 0.601,-3.046234 0.71508,-3.028919 -6.92365,-1.051606 -3.25464,0.842469 -10.82136,2.178884 -16.81495,2.969826 -15.29872,2.01891 -57.525897,2.014285 -74.513195,-0.0098 -13.686805,-1.629471 -28.622363,-4.494192 -35.32349,-6.775272 -2.581529,-0.87876 -4.844236,-1.445339 -5.028241,-1.259116 -0.184002,0.186333 0.30187,2.718175 1.07972,5.626568 3.675257,13.741772 15.938413,25.03241 30.51505,28.09514 7.849101,1.64919 11.388197,6.52863 10.338413,14.2539 -1.269674,9.3433 3.023698,20.24407 10.916498,27.71674 5.847328,5.53605 9.108168,6.61561 18.666625,6.17985 5.4105,-0.24665 6.48152,-0.57667 10.388,-3.20101 z M 96.837913,73.664248 C 81.745414,73.115946 71.966056,72.116675 58.59602,69.756637 50.235088,68.280791 38.805658,65.060549 36.445598,63.515747 31.82864,60.493652 47.088441,55.940128 68.956942,53.814358 c 12.144287,-1.180521 44.418058,-1.179559 56.547328,0.0014 27.18052,2.647047 48.88131,7.957885 48.15556,11.785118 -0.33997,1.792805 -9.22463,4.433429 -20.89588,6.210493 -10.53305,1.603741 -37.85931,2.50894 -55.926037,1.85258 z m 49.478907,-3.104257 c 12.30418,-1.463434 25.0128,-4.406864 23.85764,-5.525673 -2.44473,-2.367784 -22.99979,-6.792131 -41.13599,-8.854266 -11.99888,-1.364319 -51.908334,-1.400664 -63.223044,-0.05753 -9.628536,1.142936 -25.420823,4.502315 -26.553315,5.648512 -2.43821,2.467691 29.682863,8.363691 54.041582,9.919623 8.657007,0.552955 45.456667,-0.231858 53.013127,-1.130622 z"/>
	</symbol>
	<symbol viewBox="0 0 210 300" id="high">
		<path
       	d="m 77.887424,264.09467 -4.362436,-1.14885 -3.120292,-4.42101 -3.120292,-4.42101 -0.461172,-2.92291 -0.461172,-2.92291 -3.043145,-101.56555 -3.043145,-101.56555 1.357749,-1.780768 1.35775,-1.780767 5.266859,-1.22293 5.26686,-1.222931 24.235756,-0.804566 24.235756,-0.804566 13.68219,1.437317 13.68219,1.437317 3.04048,1.390144 3.04048,1.390143 0.0241,2.736413 0.0241,2.736413 -3.0246,101.081401 -3.02461,101.08141 -1.66689,4.36806 -1.66689,4.36806 -3.81515,2.62499 -3.81515,2.62499 -28.11348,0.22826 -28.11347,0.22826 z m 61.974616,-4.71335 3.3241,-2.22309 1.9233,-3.44137 1.92329,-3.44137 0.31238,-9.909 0.31238,-9.90901 2.63731,-91.94459 2.63731,-91.944576 -1.40272,-1.137027 -1.40272,-1.137026 -5.34021,-1.006741 -5.34022,-1.006742 H 107.93976 76.433279 l -5.340215,1.006742 -5.340215,1.006741 -1.377279,1.116405 -1.377279,1.116406 2.609395,90.058008 2.609395,90.05801 0.274668,11.74561 0.274669,11.74561 1.963482,3.51196 1.963481,3.51196 3.324094,2.22309 3.324094,2.22308 h 28.598191 28.59819 z m -62.640699,-0.44619 -3.089658,-1.17242 -1.99985,-3.3345 -1.999851,-3.33451 v -10.63597 -10.63598 h 0.878673 0.878672 l -0.490457,-2.45984 -0.490457,-2.45984 3.731863,-1.31118 3.731863,-1.31117 8.724872,-1.30441 8.724872,-1.30441 h 12.602587 12.6026 l 8.69291,1.30607 8.69291,1.30606 2.45554,0.61994 2.45553,0.61994 -2.08648,-1.21377 -2.08647,-1.21377 -9.97674,-1.52122 -9.97673,-1.52122 -17.50441,0.64146 -17.504409,0.64146 -7.096697,2.18659 -7.096697,2.18658 -0.29595,-0.44016 -0.295949,-0.44017 -2.624199,-86.24844 -2.624198,-86.248441 0.467435,-0.613069 0.467436,-0.613069 9.268843,1.355545 9.268843,1.355544 h 24.312172 24.31217 l 9.26885,-1.355544 9.26884,-1.355545 0.50584,0.663441 0.50584,0.663441 -2.55914,83.655137 -2.55915,83.65515 0.017,2.86079 0.017,2.8608 -1.69651,0.0195 -1.6965,0.0195 1.35305,1.12367 1.35305,1.12367 -0.54776,1.87219 -0.54777,1.8722 -6.62187,1.74481 -6.62186,1.7448 -21.81218,0.008 -21.812178,0.008 -6.222771,-0.95656 -6.222771,-0.95657 0.464352,0.60903 0.464352,0.60902 7.173816,1.33442 7.173817,1.33442 17.973203,-0.005 17.97321,-0.005 8.24016,-1.9117 8.24015,-1.9117 1.82399,-0.0234 1.82399,-0.0234 -0.47071,9.61994 -0.47072,9.61995 -1.92879,3.41256 -1.92879,3.41257 -3.3022,1.51756 -3.30221,1.51757 -27.62876,-0.0429 -27.62876,-0.0429 z m 61.599589,-4.22448 2.67142,-1.81184 1.15816,-3.33384 1.15817,-3.33384 v -5.76279 -5.76278 l -2.66594,0.74955 -2.66593,0.74955 -7.27073,1.21941 -7.27072,1.21941 -15.02617,0.0296 -15.026167,0.0296 -7.755442,-1.19956 -7.755442,-1.19956 -3.150648,-0.85692 -3.150648,-0.85692 0.03435,6.19839 0.03435,6.19838 1.284142,3.03871 1.284142,3.03871 2.316869,1.68423 2.316869,1.68423 28.403975,0.0451 28.40398,0.0451 z m -15.04449,-24.92107 12.24052,-1.30364 2.19936,-1.08874 2.19935,-1.08873 -5.81658,-1.10416 -5.81658,-1.10415 H 107.93976 87.097011 l -5.816581,1.13641 -5.816582,1.13641 3.283652,1.17021 3.283652,1.17021 9.318941,1.01199 9.318947,1.01199 5.43344,0.17791 5.43344,0.17792 z m -33.955303,-14.05824 11.817333,-1.50949 15.02616,0.82883 15.02617,0.82883 5.9623,1.64368 5.96231,1.64367 0.55506,-8.97653 0.55507,-8.97653 2.13437,-73.41701 2.13438,-73.417012 -0.41159,-0.536342 -0.41159,-0.536341 -10.17901,1.106607 -10.17902,1.106607 H 107.93976 88.066442 l -10.179018,-1.106607 -10.179017,-1.106607 -0.388547,0.506121 -0.388546,0.506121 2.091937,70.904303 2.091937,70.90431 0.585718,11.6317 0.585717,11.63171 2.858593,-1.07526 2.858593,-1.07526 z M 76.129056,49.601801 l -6.120803,-0.453524 0.31339,-2.162285 0.313391,-2.162285 6.776843,-0.795669 6.776844,-0.795669 h 23.751039 23.75104 l 6.77684,0.795669 6.77685,0.795669 0.29407,2.030709 0.29407,2.030709 -8.91635,0.830085 -8.91634,0.830086 L 105.1249,50.30031 82.24986,50.055325 Z" />
	</symbol>
	<symbol viewBox="0 0 210 300" id="whiskey">
		<path
       	d="m 33.947954,81.997366 39.184427,73.682164 8.603847,9.09862 7.311869,4.96162 7.834143,2.61139 h 16.19056 l 7.31187,-1.82797 12.16974,-8.38295 42.40812,-80.926286 0.26114,-0.522277 z m -7.410011,-4.381013 41.376367,92.454777 3.424251,15.40913 -3.709607,11.12881 -7.41921,15.12378 1.426771,7.70456 5.136377,5.99244 7.704564,1.71213 h 63.063284 l 5.13638,-2.85355 5.13638,-7.13385 0.28535,-6.56315 -4.85102,-11.69952 -3.42425,-8.84599 -0.57071,-6.27779 1.99748,-11.41417 40.5203,-95.308316 z" />
	</symbol>
</svg>