<?xml version="1.0" encoding="UTF-8" standalone="no"?>
<!-- Created with Inkscape (http://www.inkscape.org/) -->

<svg
   width="210mm"
   height="297mm"
   viewBox="0 0 210 297"
   version="1.1"
   id="svg1"
   xml:space="preserve"
   inkscape:version="1.3.2 (091e20e, 2023-11-25)"
   sodipodi:docname="high.svg"
   xmlns:inkscape="http://www.inkscape.org/namespaces/inkscape"
   xmlns:sodipodi="http://sodipodi.sourceforge.net/DTD/sodipodi-0.dtd"
   xmlns="http://www.w3.org/2000/svg"
   xmlns:svg="http://www.w3.org/2000/svg"><sodipodi:namedview
     id="namedview1"
     pagecolor="#ffffff"
     bordercolor="#000000"
     borderopacity="0.25"
     inkscape:showpageshadow="2"
     inkscape:pageopacity="0.0"
     inkscape:pagecheckerboard="0"
     inkscape:deskcolor="#d1d1d1"
     inkscape:document-units="mm"
     inkscape:zoom="0.40080537"
     inkscape:cx="364.26657"
     inkscape:cy="452.83824"
     inkscape:window-width="1312"
     inkscape:window-height="664"
     inkscape:window-x="0"
     inkscape:window-y="37"
     inkscape:window-maximized="0"
     inkscape:current-layer="layer1" /><defs
     id="defs1" /><g
     inkscape:label="Layer 1"
     inkscape:groupmode="layer"
     id="layer1"><path
       style="fill:none;stroke:#000000;stroke-opacity:1"
       d="m 77.887424,264.09467 -4.362436,-1.14885 -3.120292,-4.42101 -3.120292,-4.42101 -0.461172,-2.92291 -0.461172,-2.92291 -3.043145,-101.56555 -3.043145,-101.56555 1.357749,-1.780768 1.35775,-1.780767 5.266859,-1.22293 5.26686,-1.222931 24.235756,-0.804566 24.235756,-0.804566 13.68219,1.437317 13.68219,1.437317 3.04048,1.390144 3.04048,1.390143 0.0241,2.736413 0.0241,2.736413 -3.0246,101.081401 -3.02461,101.08141 -1.66689,4.36806 -1.66689,4.36806 -3.81515,2.62499 -3.81515,2.62499 -28.11348,0.22826 -28.11347,0.22826 z m 61.974616,-4.71335 3.3241,-2.22309 1.9233,-3.44137 1.92329,-3.44137 0.31238,-9.909 0.31238,-9.90901 2.63731,-91.94459 2.63731,-91.944576 -1.40272,-1.137027 -1.40272,-1.137026 -5.34021,-1.006741 -5.34022,-1.006742 H 107.93976 76.433279 l -5.340215,1.006742 -5.340215,1.006741 -1.377279,1.116405 -1.377279,1.116406 2.609395,90.058008 2.609395,90.05801 0.274668,11.74561 0.274669,11.74561 1.963482,3.51196 1.963481,3.51196 3.324094,2.22309 3.324094,2.22308 h 28.598191 28.59819 z m -62.640699,-0.44619 -3.089658,-1.17242 -1.99985,-3.3345 -1.999851,-3.33451 v -10.63597 -10.63598 h 0.878673 0.878672 l -0.490457,-2.45984 -0.490457,-2.45984 3.731863,-1.31118 3.731863,-1.31117 8.724872,-1.30441 8.724872,-1.30441 h 12.602587 12.6026 l 8.69291,1.30607 8.69291,1.30606 2.45554,0.61994 2.45553,0.61994 -2.08648,-1.21377 -2.08647,-1.21377 -9.97674,-1.52122 -9.97673,-1.52122 -17.50441,0.64146 -17.504409,0.64146 -7.096697,2.18659 -7.096697,2.18658 -0.29595,-0.44016 -0.295949,-0.44017 -2.624199,-86.24844 -2.624198,-86.248441 0.467435,-0.613069 0.467436,-0.613069 9.268843,1.355545 9.268843,1.355544 h 24.312172 24.31217 l 9.26885,-1.355544 9.26884,-1.355545 0.50584,0.663441 0.50584,0.663441 -2.55914,83.655137 -2.55915,83.65515 0.017,2.86079 0.017,2.8608 -1.69651,0.0195 -1.6965,0.0195 1.35305,1.12367 1.35305,1.12367 -0.54776,1.87219 -0.54777,1.8722 -6.62187,1.74481 -6.62186,1.7448 -21.81218,0.008 -21.812178,0.008 -6.222771,-0.95656 -6.222771,-0.95657 0.464352,0.60903 0.464352,0.60902 7.173816,1.33442 7.173817,1.33442 17.973203,-0.005 17.97321,-0.005 8.24016,-1.9117 8.24015,-1.9117 1.82399,-0.0234 1.82399,-0.0234 -0.47071,9.61994 -0.47072,9.61995 -1.92879,3.41256 -1.92879,3.41257 -3.3022,1.51756 -3.30221,1.51757 -27.62876,-0.0429 -27.62876,-0.0429 z m 61.599589,-4.22448 2.67142,-1.81184 1.15816,-3.33384 1.15817,-3.33384 v -5.76279 -5.76278 l -2.66594,0.74955 -2.66593,0.74955 -7.27073,1.21941 -7.27072,1.21941 -15.02617,0.0296 -15.026167,0.0296 -7.755442,-1.19956 -7.755442,-1.19956 -3.150648,-0.85692 -3.150648,-0.85692 0.03435,6.19839 0.03435,6.19838 1.284142,3.03871 1.284142,3.03871 2.316869,1.68423 2.316869,1.68423 28.403975,0.0451 28.40398,0.0451 z m -15.04449,-24.92107 12.24052,-1.30364 2.19936,-1.08874 2.19935,-1.08873 -5.81658,-1.10416 -5.81658,-1.10415 H 107.93976 87.097011 l -5.816581,1.13641 -5.816582,1.13641 3.283652,1.17021 3.283652,1.17021 9.318941,1.01199 9.318947,1.01199 5.43344,0.17791 5.43344,0.17792 z m -33.955303,-14.05824 11.817333,-1.50949 15.02616,0.82883 15.02617,0.82883 5.9623,1.64368 5.96231,1.64367 0.55506,-8.97653 0.55507,-8.97653 2.13437,-73.41701 2.13438,-73.417012 -0.41159,-0.536342 -0.41159,-0.536341 -10.17901,1.106607 -10.17902,1.106607 H 107.93976 88.066442 l -10.179018,-1.106607 -10.179017,-1.106607 -0.388547,0.506121 -0.388546,0.506121 2.091937,70.904303 2.091937,70.90431 0.585718,11.6317 0.585717,11.63171 2.858593,-1.07526 2.858593,-1.07526 z M 76.129056,49.601801 l -6.120803,-0.453524 0.31339,-2.162285 0.313391,-2.162285 6.776843,-0.795669 6.776844,-0.795669 h 23.751039 23.75104 l 6.77684,0.795669 6.77685,0.795669 0.29407,2.030709 0.29407,2.030709 -8.91635,0.830085 -8.91634,0.830086 L 105.1249,50.30031 82.24986,50.055325 Z"
       id="path1" /></g></svg>
