<?xml version="1.0" encoding="UTF-8" standalone="no"?>
<!-- Created with Inkscape (http://www.inkscape.org/) -->

<svg
   width="210mm"
   height="297mm"
   viewBox="0 0 210 297"
   version="1.1"
   id="svg1"
   xml:space="preserve"
   inkscape:version="1.3.2 (091e20e, 2023-11-25)"
   sodipodi:docname="mar.svg"
   xmlns:inkscape="http://www.inkscape.org/namespaces/inkscape"
   xmlns:sodipodi="http://sodipodi.sourceforge.net/DTD/sodipodi-0.dtd"
   xmlns="http://www.w3.org/2000/svg"
   xmlns:svg="http://www.w3.org/2000/svg"><sodipodi:namedview
     id="namedview1"
     pagecolor="#ffffff"
     bordercolor="#000000"
     borderopacity="0.25"
     inkscape:showpageshadow="2"
     inkscape:pageopacity="0.0"
     inkscape:pagecheckerboard="0"
     inkscape:deskcolor="#d1d1d1"
     inkscape:document-units="mm"
     inkscape:zoom="0.164729"
     inkscape:cx="182.11729"
     inkscape:cy="552.42246"
     inkscape:window-width="1312"
     inkscape:window-height="449"
     inkscape:window-x="0"
     inkscape:window-y="37"
     inkscape:window-maximized="0"
     inkscape:current-layer="layer1" /><defs
     id="defs1" /><g
     inkscape:label="Layer 1"
     inkscape:groupmode="layer"
     id="layer1"><path
       style="fill:none;stroke:#000000;stroke-width:2.23969;stroke-opacity:1"
       d="m 87.02067,252.94524 c -12.926951,-2.02092 -23.038623,-5.95061 -25.881313,-10.05822 -5.675138,-8.20041 6.834429,-15.22672 29.738067,-16.70308 2.961619,-0.19085 3.126789,-0.35418 4.622519,-4.56982 4.08542,-11.51452 1.49162,-51.00523 -3.899682,-59.37312 -1.071978,-1.6638 -3.714283,-4.24932 -5.871806,-5.74556 -4.420875,-3.06594 -9.675851,-9.03941 -12.641028,-14.3695 -3.167044,-5.69293 -4.702446,-11.60501 -5.219785,-20.09888 L 67.386185,114.12237 61.49584,112.3972 C 51.860848,109.57528 46.803371,106.58324 39.810411,99.568019 34.884509,94.626411 32.776273,91.7808 30.513495,87.019365 25.545027,76.564506 24.063461,61.594797 27.600236,57.583863 34.565508,49.684769 63.154393,45.321749 102.33556,46.178328 c 39.96322,0.87368 70.32145,6.770546 78.74459,15.295608 1.97301,1.996886 2.1495,2.681888 2.1495,8.342463 0,20.545851 -15.66237,39.342481 -36.80979,44.175961 l -5.60072,1.2801 -0.0111,5.27921 c -0.0332,15.09292 -7.31035,28.2862 -20.42581,37.03122 -2.99481,1.99685 -5.93151,4.61197 -6.52599,5.81135 -4.28249,8.64021 -6.74317,40.96066 -4.08504,53.65619 1.93077,9.2216 2.19646,9.51638 9.53002,10.57364 7.07268,1.01968 16.45677,3.70528 20.82111,5.95873 3.69756,1.90919 6.98036,5.89097 6.98036,8.46665 0,2.8016 -4.52543,6.93093 -9.38672,8.56513 -10.61437,3.56819 -35.4696,4.71088 -50.694822,2.33066 z m 33.83885,-1.17339 c 14.57513,-1.6449 23.88653,-5.45732 23.88653,-9.77998 0,-5.17985 -13.07645,-10.93582 -29.22345,-12.86359 -4.38512,-0.52353 -4.51049,-0.60792 -5.68449,-3.82602 -4.16892,-11.42785 -4.44588,-31.67332 -0.71919,-52.57338 1.71869,-9.6387 3.29311,-12.54039 8.70553,-16.04457 13.40327,-8.6777 20.63857,-20.93503 20.63857,-34.96384 0,-6.9233 0.83683,-9.00515 3.61972,-9.00515 2.79272,0 12.50674,-3.41905 17.19284,-6.05143 9.43007,-5.2972 18.56992,-17.816393 21.17582,-29.005316 1.87295,-8.041673 1.6145,-12.006511 -0.95231,-14.610025 -7.19691,-7.299811 -32.63038,-12.76348 -68.74648,-14.768295 -37.998733,-2.109296 -76.149154,3.181617 -81.798121,11.344223 -1.603129,2.316477 -1.621748,10.660945 -0.03782,16.955464 4.107477,16.323206 17.703547,29.889179 34.217942,34.142189 2.770332,0.71348 5.478743,1.87988 6.018692,2.59201 0.59392,0.78332 0.989308,3.82525 1.000923,7.70066 0.01044,3.5232 0.38548,8.01545 0.833162,9.98279 2.033691,8.93705 8.130399,17.54078 18.200024,25.6841 4.843641,3.91706 6.376041,7.14453 7.994071,16.83667 3.371967,20.19839 3.301247,40.77391 -0.17266,50.24811 l -1.39675,3.80925 -10.186038,1.3202 c -10.955119,1.4199 -17.850596,3.57963 -21.586293,6.76105 -3.02627,2.57724 -2.953535,3.86722 0.398458,7.06679 7.522551,7.18054 34.694653,11.52261 56.62134,9.04809 z m -32.989684,-4.38777 c -8.866001,-1.3949 -16.848069,-3.93025 -19.752186,-6.27392 -1.913943,-1.5446 -2.101498,-2.0091 -1.236952,-3.06343 1.400144,-1.70748 7.386999,-3.61085 15.603182,-4.96068 9.012979,-1.48071 9.641753,-1.45435 9.641753,0.40439 0,3.4424 1.51626,2.06824 4.14839,-3.75962 3.62789,-8.03256 5.276167,-16.40308 5.276167,-26.79425 0,-15.13012 -2.885567,-35.75584 -5.783007,-41.33603 -0.908,-1.74875 -1.65702,-3.53599 -1.6645,-3.97167 -0.0126,-0.74324 16.821287,-0.67985 17.583977,0.0663 0.17567,0.17169 -0.24591,1.65728 -0.93666,3.30117 -3.70082,8.80766 -6.48769,30.25477 -5.84058,44.94799 0.48461,11.00369 1.69508,16.27402 5.69919,24.81395 2.88601,6.15525 4.29304,7.44507 4.29304,3.93545 0,-1.89754 0.18298,-1.99195 2.94516,-1.51979 11.93827,2.04071 22.18698,5.95115 22.18698,8.46555 0,2.10695 -5.10818,4.26192 -13.69486,5.77742 -8.62016,1.52142 -28.699317,1.50433 -38.469094,-0.0327 z m 39.660594,-2.27935 c 2.77472,-0.58756 6.28134,-1.58265 7.79244,-2.21125 l 2.74746,-1.14297 -2.64764,-1.3947 c -2.35226,-1.23913 -17.51964,-5.55452 -17.70067,-5.03617 -0.64909,1.85869 -2.13818,3.43516 -3.42914,3.63041 -1.22715,0.18567 -2.16515,-0.68438 -3.82084,-3.5438 -2.66023,-4.59427 -6.56571,-15.5118 -6.56571,-18.35409 0,-3.02419 -0.73844,-1.77647 -2.06613,3.49118 -1.79781,7.13269 -6.552887,16.9684 -8.203427,16.9684 -2.224676,0 -3.867276,-0.88016 -3.867276,-2.07224 0,-0.60901 -0.675755,-1.10728 -1.501673,-1.10728 -2.878729,0 -13.201802,2.27093 -16.245169,3.57372 l -3.065713,1.31233 2.748837,1.49093 c 3.285952,1.78226 14.600602,4.52563 22.775984,5.52232 7.493497,0.91355 26.468617,0.2666 33.048667,-1.12679 z M 103.9245,182.81671 c 0.0201,-2.41446 3.4173,-19.67557 4.29245,-21.81233 0.50077,-1.22277 0.0607,-1.39234 -3.63756,-1.4019 -2.31401,-0.007 -5.000607,-0.22604 -5.970257,-0.48906 l -1.76297,-0.4782 1.49315,3.46988 c 1.56058,3.62654 3.996247,16.51376 3.996247,21.14423 0,1.59021 0.32092,2.4882 0.78539,2.19767 0.43195,-0.27021 0.79354,-1.45381 0.80355,-2.63029 z m -9.156307,-28.69672 c -3.208353,-0.81776 -6.174143,-3.00028 -10.632999,-7.82482 -6.644566,-7.18954 -9.287907,-14.50216 -9.287907,-25.69447 0,-10.27071 -1.011531,-11.6344 -10.514618,-14.17522 C 52.141806,103.16603 41.644615,94.810725 36.782795,84.497038 34.414918,79.473891 32.436798,72.540857 32.436798,69.264948 c 0,-1.498496 1.458743,-1.272572 10.995313,1.702828 18.806131,5.86751 56.844849,9.207108 85.993829,7.549763 20.89745,-1.188169 31.07128,-2.729986 45.09227,-6.833641 1.86979,-0.547257 1.8856,-0.505479 1.39475,3.688946 -0.77117,6.590122 -5.26051,15.279341 -10.65357,20.620296 -6.01284,5.95478 -11.79042,9.22879 -19.8622,11.25542 -4.75428,1.19371 -7.17337,2.26564 -8.85424,3.92342 -2.19038,2.16032 -2.3409,2.7347 -2.84429,10.85458 -0.34133,5.50585 -1.07238,9.93318 -2.04308,12.37328 -2.37105,5.96017 -7.78073,12.82198 -13.08439,16.59664 l -4.84762,3.45013 -8.2465,0.1505 c -4.53555,0.0827 -9.354557,-0.13179 -10.708877,-0.47712 z m 22.024367,-4.42875 c 2.39555,-1.60929 5.92969,-5.04545 7.85366,-7.63584 4.92703,-6.6337 6.80647,-12.19718 7.42481,-21.97864 0.48612,-7.68932 0.64628,-8.27214 2.9006,-10.55371 1.77156,-1.79299 3.89792,-2.77949 8.25615,-3.8304 8.29257,-1.99961 14.40471,-5.32891 20.12595,-10.96268 4.96728,-4.891323 9.02077,-11.922569 10.13805,-17.58561 0.601,-3.046234 0.71508,-3.028919 -6.92365,-1.051606 -3.25464,0.842469 -10.82136,2.178884 -16.81495,2.969826 -15.29872,2.01891 -57.525897,2.014285 -74.513195,-0.0098 -13.686805,-1.629471 -28.622363,-4.494192 -35.32349,-6.775272 -2.581529,-0.87876 -4.844236,-1.445339 -5.028241,-1.259116 -0.184002,0.186333 0.30187,2.718175 1.07972,5.626568 3.675257,13.741772 15.938413,25.03241 30.51505,28.09514 7.849101,1.64919 11.388197,6.52863 10.338413,14.2539 -1.269674,9.3433 3.023698,20.24407 10.916498,27.71674 5.847328,5.53605 9.108168,6.61561 18.666625,6.17985 5.4105,-0.24665 6.48152,-0.57667 10.388,-3.20101 z M 96.837913,73.664248 C 81.745414,73.115946 71.966056,72.116675 58.59602,69.756637 50.235088,68.280791 38.805658,65.060549 36.445598,63.515747 31.82864,60.493652 47.088441,55.940128 68.956942,53.814358 c 12.144287,-1.180521 44.418058,-1.179559 56.547328,0.0014 27.18052,2.647047 48.88131,7.957885 48.15556,11.785118 -0.33997,1.792805 -9.22463,4.433429 -20.89588,6.210493 -10.53305,1.603741 -37.85931,2.50894 -55.926037,1.85258 z m 49.478907,-3.104257 c 12.30418,-1.463434 25.0128,-4.406864 23.85764,-5.525673 -2.44473,-2.367784 -22.99979,-6.792131 -41.13599,-8.854266 -11.99888,-1.364319 -51.908334,-1.400664 -63.223044,-0.05753 -9.628536,1.142936 -25.420823,4.502315 -26.553315,5.648512 -2.43821,2.467691 29.682863,8.363691 54.041582,9.919623 8.657007,0.552955 45.456667,-0.231858 53.013127,-1.130622 z"
       id="path1" /></g></svg>
