<?xml version="1.0" encoding="UTF-8" standalone="no"?>
<!-- Created with Inkscape (http://www.inkscape.org/) -->

<svg
   width="210mm"
   height="297mm"
   viewBox="0 0 210 297"
   version="1.1"
   id="svg1"
   xml:space="preserve"
   sodipodi:docname="martini.svg"
   inkscape:version="1.3.2 (091e20e, 2023-11-25)"
   xmlns:inkscape="http://www.inkscape.org/namespaces/inkscape"
   xmlns:sodipodi="http://sodipodi.sourceforge.net/DTD/sodipodi-0.dtd"
   xmlns="http://www.w3.org/2000/svg"
   xmlns:svg="http://www.w3.org/2000/svg"><sodipodi:namedview
     id="namedview1"
     pagecolor="#ffffff"
     bordercolor="#000000"
     borderopacity="0.25"
     inkscape:showpageshadow="2"
     inkscape:pageopacity="0.0"
     inkscape:pagecheckerboard="0"
     inkscape:deskcolor="#d1d1d1"
     inkscape:document-units="mm"
     inkscape:zoom="0.4359201"
     inkscape:cx="584.96958"
     inkscape:cy="604.46857"
     inkscape:window-width="1312"
     inkscape:window-height="782"
     inkscape:window-x="71"
     inkscape:window-y="37"
     inkscape:window-maximized="0"
     inkscape:current-layer="layer1" /><defs
     id="defs1" /><g
     inkscape:label="martini"
     inkscape:groupmode="layer"
     id="layer1"><path
       id="rect18"
       style="fill:none;fill-opacity:1;stroke:#000000;stroke-width:0.964665;stroke-dasharray:none;stroke-opacity:1;paint-order:markers fill stroke"
       d="m 186.48818,14.085008 -29.29797,34.912159 -58.245601,0.110451 -81.47368,0.155339 40.92087,51.367103 29.935064,37.57614 4.696168,51.16335 -8.105833,68.0843 0.175903,0.007 -15.729775,8.36214 -15.659318,3.6989 -9.235162,1.64419 -2.007853,3.69891 3.614144,3.69891 15.255277,3.91325 17.268074,0.60774 31.319122,0.41105 c 7.49512,-0.685 17.42277,1.12001 22.48504,-2.05523 6.4244,-1.64399 16.32573,-0.9156 19.27347,-4.93205 l -0.40158,-4.521 -13.25038,-3.6989 -18.47031,-5.34259 -8.98732,-4.64809 -0.17049,-0.008 -6.6991,-69.03703 6.94055,-51.64348 29.22848,-37.13484 40.55281,-51.521938 -16.58909,0.03177 26.47268,-31.545619 z m -157.817102,40.312743 70.793841,0.169458 52.943881,0.127099 -55.871651,66.577312 3.814191,3.35393 58.67279,-69.915101 11.23464,0.02673 L 134.64899,96.95889 99.038719,139.1806 63.855145,96.788926 Z" /></g></svg>
